<?xml version="1.0" encoding="UTF-8"?>
<svg id="Capa_1" data-name="Capa 1" xmlns="http://www.w3.org/2000/svg" viewBox="0 0 147.27 42.52">
  <defs>
    <style>
      .cls-1 {
        fill: #fff;
      }

      .cls-2 {
        fill: #575756;
      }

      .cls-3 {
        fill: #fbba00;
      }
    </style>
  </defs>
  <g id="Corto">
    <g id="fadu">
      <path class="cls-2" d="m77.72,9.52v1.75h2.28v1.03h-2.28v2.53h-1.32v-6.35h4.12l-.18,1.03h-2.62Z"/>
      <path class="cls-2" d="m86.91,14.84h-1.36l-.53-1.5h-2.53l-.53,1.5h-1.36l2.48-6.35h1.34l2.48,6.35Zm-2.21-2.41l-.69-1.94c-.04-.1-.08-.22-.13-.36-.04-.14-.09-.29-.13-.45-.04.16-.08.31-.13.45-.04.14-.09.26-.13.36l-.68,1.93h1.88Z"/>
      <path class="cls-2" d="m91.75,10.02c-.24-.16-.48-.29-.73-.37-.25-.08-.51-.13-.75-.13s-.47.04-.69.13c-.22.09-.41.21-.57.39-.16.17-.29.4-.39.66-.1.27-.14.59-.14.95s.05.69.15.96c.1.27.24.5.41.67.17.18.37.31.6.4.22.09.46.13.7.13.26,0,.51-.05.77-.14.26-.09.5-.23.72-.4l.69.63c-.15.18-.3.34-.48.47-.17.13-.36.23-.55.31-.2.08-.4.13-.61.17-.21.04-.44.05-.67.05-.48,0-.92-.08-1.3-.25-.38-.17-.71-.4-.97-.69-.26-.29-.46-.64-.6-1.03-.14-.4-.21-.82-.21-1.28s.08-.91.23-1.3c.15-.4.37-.74.64-1.03.28-.29.61-.51,1-.67.39-.16.81-.24,1.28-.24s.85.07,1.2.21c.35.14.65.33.9.56l-.62.83Z"/>
      <path class="cls-2" d="m95.86,13.79c.21,0,.4-.04.57-.11.17-.07.31-.17.43-.3.12-.13.21-.29.27-.48.06-.19.09-.4.09-.63v-3.78h1.31v3.78c0,.39-.06.74-.19,1.06-.12.32-.3.6-.53.83-.23.23-.51.42-.84.55-.33.13-.7.2-1.12.2s-.79-.07-1.12-.2c-.33-.13-.61-.31-.84-.55s-.41-.51-.53-.83c-.12-.32-.19-.68-.19-1.06v-3.78h1.31v3.78c0,.23.03.44.09.63.06.19.15.35.27.48.12.13.26.23.43.3.17.07.36.11.58.11Z"/>
      <path class="cls-2" d="m103.64,13.77l-.19,1.07h-3.67v-6.35h1.31v5.28h2.55Z"/>
      <path class="cls-2" d="m108.75,9.55h-1.76v5.29h-1.32v-5.29h-1.86v-1.06h5.12l-.18,1.06Z"/>
      <path class="cls-2" d="m115.19,14.84h-1.36l-.53-1.5h-2.53l-.53,1.5h-1.36l2.48-6.35h1.34l2.48,6.35Zm-2.21-2.41l-.69-1.94c-.04-.1-.08-.22-.13-.36-.04-.14-.09-.29-.13-.45-.04.16-.08.31-.13.45-.05.14-.09.26-.13.36l-.68,1.93h1.89Z"/>
      <path class="cls-2" d="m121.47,11.66c0,.46-.08.89-.23,1.28-.16.39-.38.72-.66,1-.29.28-.63.5-1.03.66-.4.16-.84.24-1.33.24h-2.44v-6.35h2.44c.49,0,.93.08,1.33.24.4.16.74.38,1.03.66.28.28.5.62.66,1,.16.39.23.81.23,1.27Zm-1.35,0c0-.33-.04-.63-.13-.9-.09-.26-.21-.49-.38-.67-.16-.18-.36-.33-.6-.42-.23-.1-.5-.15-.8-.15h-1.12v4.29h1.12c.3,0,.56-.05.8-.15.24-.1.44-.24.6-.42.16-.19.29-.41.38-.68.09-.27.13-.57.13-.9Z"/>
      <path class="cls-2" d="m57.09,21.25c0,.46-.08.89-.23,1.28-.16.39-.38.72-.66,1-.29.28-.63.5-1.03.66-.4.16-.84.24-1.33.24h-2.44v-6.35h2.44c.49,0,.93.08,1.33.24.4.16.74.38,1.03.66.28.28.5.62.66,1,.16.39.23.81.23,1.27Zm-1.35,0c0-.33-.04-.63-.13-.9-.09-.26-.21-.49-.38-.67-.16-.18-.36-.33-.6-.42-.23-.1-.5-.15-.8-.15h-1.12v4.29h1.12c.3,0,.56-.05.8-.15.24-.1.44-.24.6-.42.16-.19.29-.41.38-.68.09-.27.13-.57.13-.9Z"/>
      <path class="cls-2" d="m59.38,19.11v1.63h2.12v.99h-2.12v1.67h2.81l-.19,1.03h-3.95v-6.35h4.14l-.18,1.03h-2.63Z"/>
      <path class="cls-2" d="m70.71,24.43h-1.36l-.53-1.5h-2.53l-.53,1.5h-1.36l2.48-6.35h1.34l2.48,6.35Zm-2.21-2.41l-.69-1.94c-.04-.1-.08-.22-.13-.36-.04-.14-.09-.29-.13-.45-.04.16-.08.31-.13.45-.04.14-.09.26-.13.36l-.68,1.93h1.88Z"/>
      <path class="cls-2" d="m76.36,24.43h-1.51l-1.37-2.2c-.05-.08-.1-.13-.16-.17-.06-.04-.15-.05-.27-.05h-.45v2.42h-1.31v-6.35h2c.32,0,.62.03.92.09.3.06.56.16.8.3s.42.33.56.57c.14.24.21.54.21.89,0,.22-.03.43-.1.62-.06.19-.15.36-.27.52-.12.15-.26.29-.42.4-.16.11-.35.21-.55.28.09.05.18.11.24.17.07.06.13.14.19.23l1.48,2.28Zm-3.08-3.34c.18,0,.34-.02.49-.06.15-.04.28-.11.39-.19.11-.09.19-.2.25-.33.06-.13.09-.29.09-.47s-.03-.34-.1-.46c-.07-.12-.15-.22-.27-.29-.11-.07-.24-.12-.39-.16-.15-.03-.3-.05-.46-.05h-.68v2.01h.67Z"/>
      <path class="cls-2" d="m83.46,25.64h-1.59l-1.12-1.25c-.28.07-.58.1-.88.1-.49,0-.93-.08-1.33-.25-.4-.16-.74-.39-1.03-.68-.29-.29-.51-.63-.66-1.03-.16-.4-.23-.83-.23-1.29s.08-.89.23-1.29c.16-.39.38-.74.66-1.03.29-.29.63-.52,1.03-.68.4-.16.84-.25,1.33-.25s.93.08,1.33.25c.4.16.74.39,1.03.68.28.29.5.63.66,1.03.16.4.23.82.23,1.28,0,.28-.03.55-.09.8-.06.25-.14.49-.25.72-.11.22-.24.43-.4.62-.16.19-.34.36-.53.5l1.61,1.76Zm-5.5-4.39c0,.33.04.63.13.9.09.26.21.49.38.67.16.18.37.32.6.42.24.1.5.15.8.15s.56-.05.8-.15c.24-.1.44-.24.6-.42.17-.18.29-.41.38-.67.09-.26.13-.56.13-.9s-.04-.63-.13-.89c-.09-.26-.21-.49-.38-.67-.16-.19-.36-.33-.6-.42-.23-.1-.5-.15-.8-.15s-.56.05-.8.15c-.24.1-.44.24-.6.42-.17.18-.29.41-.38.67-.09.26-.13.56-.13.89Z"/>
      <path class="cls-2" d="m86.68,23.38c.21,0,.4-.04.57-.11.17-.07.31-.17.43-.3.12-.13.21-.29.27-.48.06-.19.09-.4.09-.63v-3.78h1.31v3.78c0,.39-.06.74-.19,1.06-.12.32-.3.6-.53.83-.23.23-.51.42-.84.55-.33.13-.7.2-1.12.2s-.79-.07-1.12-.2c-.33-.13-.61-.31-.84-.55-.23-.23-.41-.51-.53-.83-.12-.32-.19-.68-.19-1.06v-3.78h1.31v3.78c0,.23.03.44.09.63.06.19.15.35.27.48.12.13.26.23.43.3.17.07.36.11.58.11Z"/>
      <path class="cls-2" d="m91.93,24.43h-1.32v-6.35h1.32v6.35Z"/>
      <path class="cls-2" d="m97.65,19.14h-1.76v5.29h-1.32v-5.29h-1.86v-1.06h5.12l-.18,1.06Z"/>
      <path class="cls-2" d="m99.86,19.11v1.63h2.12v.99h-2.12v1.67h2.81l-.19,1.03h-3.95v-6.35h4.14l-.18,1.03h-2.63Z"/>
      <path class="cls-2" d="m107.83,19.61c-.24-.16-.48-.29-.73-.37-.25-.08-.51-.13-.75-.13s-.47.04-.69.13c-.22.09-.41.21-.57.39-.16.17-.29.4-.39.67-.1.27-.14.59-.14.95s.05.69.15.96c.1.27.24.5.41.67.17.18.37.31.6.4.22.09.46.13.7.13.26,0,.51-.05.77-.14.26-.09.5-.23.72-.4l.69.63c-.15.18-.3.34-.48.47-.17.13-.36.23-.55.31-.2.08-.4.13-.61.17-.21.04-.44.05-.67.05-.48,0-.92-.08-1.3-.25-.38-.17-.71-.4-.97-.69-.26-.29-.46-.63-.6-1.03-.14-.4-.21-.82-.21-1.28s.08-.91.23-1.3c.15-.4.37-.74.64-1.03.28-.29.61-.51,1-.67.39-.16.81-.24,1.28-.24s.85.07,1.2.21c.35.14.65.33.9.56l-.62.83Z"/>
      <path class="cls-2" d="m113.73,19.14h-1.76v5.29h-1.32v-5.29h-1.86v-1.06h5.12l-.19,1.06Z"/>
      <path class="cls-2" d="m117.21,23.38c.21,0,.4-.04.57-.11.17-.07.31-.17.43-.3.12-.13.21-.29.27-.48.06-.19.09-.4.09-.63v-3.78h1.31v3.78c0,.39-.06.74-.19,1.06-.12.32-.3.6-.53.83-.23.23-.51.42-.84.55-.33.13-.7.2-1.12.2s-.79-.07-1.12-.2c-.33-.13-.61-.31-.84-.55-.23-.23-.41-.51-.53-.83-.12-.32-.19-.68-.19-1.06v-3.78h1.31v3.78c0,.23.03.44.09.63.06.19.15.35.27.48.12.13.26.23.43.3.17.07.36.11.58.11Z"/>
      <path class="cls-2" d="m126.2,24.43h-1.51l-1.37-2.2c-.05-.08-.1-.13-.16-.17-.06-.04-.15-.05-.27-.05h-.45v2.42h-1.31v-6.35h2c.32,0,.62.03.92.09.3.06.56.16.8.3.23.14.42.33.56.57.14.24.21.54.21.89,0,.22-.03.43-.1.62-.06.19-.15.36-.27.52-.12.15-.26.29-.42.4-.16.11-.35.21-.55.28.09.05.18.11.24.17.07.06.13.14.19.23l1.48,2.28Zm-3.08-3.34c.18,0,.34-.02.49-.06.15-.04.28-.11.39-.19.11-.09.19-.2.25-.33.06-.13.09-.29.09-.47s-.03-.34-.1-.46c-.07-.12-.15-.22-.27-.29-.11-.07-.24-.12-.39-.16-.15-.03-.3-.05-.46-.05h-.68v2.01h.67Z"/>
      <path class="cls-2" d="m132.38,24.43h-1.36l-.53-1.5h-2.53l-.53,1.5h-1.36l2.48-6.35h1.34l2.48,6.35Zm-2.21-2.41l-.69-1.94c-.04-.1-.08-.22-.13-.36-.04-.14-.09-.29-.13-.45-.04.16-.08.31-.13.45-.05.14-.09.26-.13.36l-.68,1.93h1.89Z"/>
      <path class="cls-2" d="m132.66,25.33c.14-.13.26-.27.37-.42.11-.14.19-.31.25-.51-.1,0-.18-.03-.26-.07-.08-.04-.15-.09-.2-.15-.06-.06-.1-.13-.13-.22-.03-.08-.04-.17-.04-.26s.02-.18.05-.26c.04-.08.09-.14.15-.2.06-.05.13-.1.22-.12.08-.03.17-.04.26-.04.11,0,.22.02.31.06.14.07.25.17.3.3.06.13.09.27.09.42,0,.18-.03.35-.08.52-.05.17-.13.34-.22.49-.09.16-.2.3-.33.44-.12.14-.25.26-.39.36l-.35-.36Z"/>
      <path class="cls-2" d="m57.09,30.84c0,.46-.08.89-.23,1.28-.16.39-.38.72-.66,1-.29.28-.63.5-1.03.66-.4.16-.84.24-1.33.24h-2.44v-6.35h2.44c.49,0,.93.08,1.33.24.4.16.74.38,1.03.66.28.28.5.62.66,1,.16.39.23.81.23,1.27Zm-1.35,0c0-.33-.04-.63-.13-.9-.09-.27-.21-.49-.38-.67-.16-.18-.36-.33-.6-.43-.23-.1-.5-.15-.8-.15h-1.12v4.29h1.12c.3,0,.56-.05.8-.15.24-.1.44-.24.6-.43.16-.18.29-.41.38-.68s.13-.56.13-.9Z"/>
      <path class="cls-2" d="m59.38,34.02h-1.32v-6.35h1.32v6.35Z"/>
      <path class="cls-2" d="m63.89,29.12c-.08-.07-.18-.14-.29-.2-.1-.06-.21-.11-.33-.15-.11-.04-.23-.07-.35-.1-.12-.02-.23-.03-.35-.03-.12,0-.24.01-.35.04-.11.03-.2.07-.28.13-.08.06-.14.14-.19.23-.05.09-.07.2-.07.33,0,.14.04.26.12.35.08.09.19.17.33.24.13.07.29.13.46.18.17.05.35.11.53.17.18.06.36.14.53.22.17.08.33.19.46.32.13.13.24.29.33.47.08.19.12.41.12.68,0,.34-.06.64-.19.9-.12.26-.29.47-.49.65-.2.17-.44.3-.7.39-.26.09-.53.13-.8.13-.41,0-.8-.07-1.16-.21-.37-.14-.69-.35-.97-.62l.54-.81c.12.08.24.16.37.23.13.07.26.14.4.19.13.05.27.1.4.13.13.03.27.04.4.04s.27-.02.38-.05c.12-.03.22-.08.3-.15.09-.07.15-.16.2-.26.05-.1.07-.23.07-.37,0-.16-.04-.29-.12-.39-.08-.1-.19-.18-.33-.25-.13-.07-.29-.12-.46-.17-.17-.05-.35-.1-.53-.16-.18-.06-.36-.13-.53-.21-.17-.08-.32-.19-.46-.32-.13-.13-.24-.3-.33-.5-.08-.2-.12-.45-.12-.74,0-.2.03-.39.09-.56.06-.18.14-.34.25-.48.11-.14.24-.27.38-.38.15-.11.31-.2.5-.27.26-.11.56-.16.9-.16.17,0,.34.01.51.04.17.03.34.06.5.12.16.05.32.12.46.21.15.08.29.19.41.31l-.58.85Z"/>
      <path class="cls-2" d="m66.85,28.7v1.63h2.12v.99h-2.12v1.67h2.81l-.19,1.03h-3.95v-6.35h4.14l-.18,1.03h-2.63Z"/>
      <path class="cls-2" d="m76.03,27.67v6.35h-1.31v-1.7l.31.35-3.49-3.32.22-.06c0,.1.02.2.02.3,0,.1,0,.19,0,.28v4.14h-1.29v-6.35h.92l3.59,3.44-.26.07c-.01-.11-.02-.22-.03-.32,0-.1,0-.2,0-.29v-2.9h1.31Zm-2.22-1.15c.06,0,.12-.01.17-.04.05-.03.09-.06.12-.1.03-.04.05-.08.06-.13.02-.05.02-.09.02-.14h.73c0,.15-.02.3-.06.44-.04.14-.1.26-.18.37-.08.11-.18.19-.3.26-.12.06-.25.1-.41.1s-.29-.02-.4-.07c-.11-.05-.21-.1-.3-.15-.09-.05-.17-.1-.25-.15-.07-.05-.15-.07-.23-.07-.06,0-.12.01-.16.04-.04.03-.08.06-.11.1-.03.04-.05.08-.06.13-.01.05-.02.09-.02.14h-.74c0-.15.02-.3.06-.44.04-.14.1-.27.18-.38s.18-.2.3-.26c.12-.07.25-.1.41-.1s.29.02.4.07.21.1.3.15c.09.05.17.1.24.15s.15.07.22.07Z"/>
      <path class="cls-2" d="m83.45,30.84c0,.46-.08.89-.23,1.29-.16.4-.37.74-.66,1.03-.28.29-.63.52-1.03.68-.4.17-.84.25-1.33.25s-.93-.08-1.33-.25c-.4-.16-.74-.39-1.03-.68-.29-.29-.51-.63-.66-1.03-.16-.4-.23-.83-.23-1.29s.08-.89.23-1.29c.16-.39.38-.74.66-1.03.29-.29.63-.52,1.03-.68.4-.17.84-.25,1.33-.25s.93.08,1.33.25c.4.16.74.39,1.03.68.29.29.5.63.66,1.03.16.4.23.82.23,1.29Zm-1.34,0c0-.33-.04-.63-.13-.89-.09-.26-.21-.49-.38-.67-.17-.19-.37-.33-.6-.42-.24-.1-.5-.15-.8-.15s-.56.05-.8.15c-.24.1-.44.24-.6.42-.16.19-.29.41-.38.67-.09.26-.13.56-.13.89s.04.63.13.9c.09.26.21.49.38.67.16.18.37.32.6.42s.5.15.8.15.56-.05.8-.15c.23-.1.43-.24.6-.42.16-.18.29-.41.38-.67.09-.26.13-.56.13-.9Z"/>
      <path class="cls-2" d="m89.36,31.58v2.44h-1.31v-2.44l-2.3-3.91h1.44l1.19,2.29c.07.13.13.26.19.38.06.12.11.23.15.35.04-.12.09-.23.14-.35.05-.12.11-.24.18-.38l1.18-2.29h1.45l-2.31,3.91Z"/>
      <path class="cls-2" d="m96.93,32.97c.21,0,.4-.04.57-.11.17-.07.31-.17.43-.3.12-.13.2-.29.27-.48.06-.19.09-.4.09-.63v-3.78h1.31v3.78c0,.38-.06.74-.19,1.06-.12.32-.3.6-.53.83-.23.23-.51.42-.84.55-.33.13-.7.2-1.12.2s-.79-.07-1.12-.2c-.33-.13-.61-.31-.84-.55-.23-.23-.41-.51-.53-.83-.12-.32-.19-.68-.19-1.06v-3.78h1.31v3.78c0,.23.03.44.09.63.06.19.15.35.27.48.12.13.26.23.43.3.17.07.36.11.58.11Z"/>
      <path class="cls-2" d="m105.91,34.02h-1.51l-1.37-2.2c-.05-.07-.1-.13-.16-.17-.06-.04-.15-.05-.27-.05h-.45v2.42h-1.31v-6.35h2c.32,0,.62.03.92.09.3.06.56.16.8.3.23.14.42.33.56.57.14.24.21.54.21.89,0,.22-.03.43-.1.62-.06.19-.15.36-.27.52-.12.15-.26.29-.42.4-.16.11-.35.2-.55.28.09.05.18.11.24.17.07.06.13.14.19.23l1.48,2.28Zm-3.08-3.34c.18,0,.34-.02.49-.06.15-.04.28-.11.39-.19.11-.09.19-.2.25-.33.06-.13.09-.29.09-.47s-.03-.34-.1-.46c-.07-.12-.15-.22-.27-.29-.11-.07-.24-.12-.39-.16-.15-.03-.3-.04-.46-.04h-.68v2.01h.67Z"/>
      <path class="cls-2" d="m108.79,27.67c.43,0,.79.04,1.09.12.3.08.55.2.74.34.19.15.33.33.42.54.09.21.13.44.13.7,0,.15-.02.29-.06.42-.04.13-.11.26-.2.38-.09.12-.2.22-.34.32-.14.1-.31.18-.5.24.43.1.75.27.96.5.21.23.31.53.31.9,0,.27-.05.52-.16.75-.1.23-.25.43-.45.6-.2.17-.44.3-.73.39-.29.1-.62.14-1,.14h-2.46v-6.35h2.25Zm-.94,1v1.71h.86c.18,0,.35-.02.49-.05.14-.03.26-.08.36-.15s.17-.15.22-.26c.05-.11.08-.24.08-.4s-.02-.29-.06-.4c-.04-.11-.11-.2-.2-.27-.09-.07-.2-.12-.33-.15-.13-.03-.29-.04-.48-.04h-.94Zm1.12,4.34c.21,0,.38-.03.52-.08.14-.05.24-.12.33-.2.08-.09.14-.18.17-.29.03-.11.05-.22.05-.34,0-.13-.02-.24-.06-.35-.04-.1-.1-.19-.18-.26-.08-.07-.2-.13-.33-.16-.14-.04-.3-.06-.5-.06h-1.12v1.74h1.12Z"/>
      <path class="cls-2" d="m117.9,34.02h-1.36l-.53-1.5h-2.53l-.53,1.5h-1.36l2.48-6.35h1.34l2.48,6.35Zm-2.21-2.41l-.69-1.94c-.04-.1-.08-.22-.13-.36-.04-.14-.09-.29-.13-.45-.04.16-.08.31-.13.45-.04.14-.09.26-.13.36l-.68,1.93h1.88Z"/>
      <path class="cls-2" d="m124.01,27.67v6.35h-1.31v-1.7l.31.35-3.49-3.32.22-.06c0,.1.02.2.02.3,0,.1,0,.19,0,.28v4.14h-1.29v-6.35h.92l3.59,3.44-.26.07c-.01-.11-.02-.22-.03-.32,0-.1,0-.2,0-.29v-2.9h1.31Z"/>
      <path class="cls-2" d="m126.66,34.02h-1.32v-6.35h1.32v6.35Z"/>
      <path class="cls-2" d="m131.17,29.12c-.08-.07-.18-.14-.28-.2-.11-.06-.21-.11-.33-.15-.11-.04-.23-.07-.35-.1-.12-.02-.23-.03-.35-.03-.12,0-.24.01-.35.04-.11.03-.21.07-.29.13-.08.06-.14.14-.19.23-.05.09-.07.2-.07.33,0,.14.04.26.12.35.08.09.19.17.33.24.14.07.29.13.46.18.17.05.35.11.53.17.18.06.36.14.53.22.17.08.33.19.46.32.13.13.24.29.33.47s.12.41.12.68c0,.34-.06.64-.19.9-.12.26-.29.47-.49.65-.21.17-.44.3-.7.39-.26.09-.53.13-.8.13-.41,0-.79-.07-1.16-.21-.37-.14-.69-.35-.98-.62l.54-.81c.12.08.24.16.37.23.13.07.26.14.4.19.13.05.27.1.4.13.14.03.27.04.4.04.14,0,.27-.02.38-.05.12-.03.22-.08.3-.15.09-.07.15-.16.2-.26.05-.1.07-.23.07-.37,0-.16-.04-.29-.12-.39-.08-.1-.19-.18-.33-.25-.13-.07-.29-.12-.46-.17-.17-.05-.35-.1-.53-.16-.18-.06-.36-.13-.53-.21-.17-.08-.33-.19-.46-.32-.13-.13-.24-.3-.33-.5-.08-.2-.12-.45-.12-.74,0-.2.03-.39.09-.56.06-.18.14-.34.25-.48.11-.14.24-.27.38-.38.15-.11.31-.2.49-.27.26-.11.56-.16.91-.16.17,0,.34.01.51.04.17.03.34.06.5.12.16.05.32.12.47.21.15.08.29.19.41.31l-.58.85Z"/>
      <path class="cls-2" d="m139.81,27.67v6.35h-1.16v-3.9c0-.08,0-.17,0-.26,0-.09.01-.19.02-.29l-1.96,3.73h-.81l-1.97-3.74c0,.1.02.2.02.29,0,.09,0,.18,0,.26v3.9h-1.16v-6.35h1.33l1.88,3.59c.06.1.11.21.16.31s.09.22.14.33c.04-.12.09-.23.14-.34.05-.11.1-.22.16-.32l1.87-3.58h1.33Z"/>
      <path class="cls-2" d="m147.27,30.84c0,.46-.08.89-.23,1.29-.16.4-.38.74-.66,1.03-.29.29-.63.52-1.03.68-.4.17-.84.25-1.33.25s-.93-.08-1.33-.25c-.4-.16-.74-.39-1.03-.68-.29-.29-.51-.63-.66-1.03-.16-.4-.23-.83-.23-1.29s.08-.89.23-1.29c.16-.39.38-.74.66-1.03.29-.29.63-.52,1.03-.68.4-.17.84-.25,1.33-.25s.93.08,1.33.25c.4.16.74.39,1.03.68.28.29.5.63.66,1.03.16.4.23.82.23,1.29Zm-1.34,0c0-.33-.04-.63-.13-.89-.09-.26-.21-.49-.38-.67-.16-.19-.37-.33-.6-.42-.23-.1-.5-.15-.8-.15s-.56.05-.8.15c-.23.1-.44.24-.6.42-.16.19-.29.41-.38.67-.09.26-.13.56-.13.89s.04.63.13.9c.09.26.21.49.38.67.17.18.37.32.6.42.24.1.5.15.8.15s.56-.05.8-.15c.23-.1.44-.24.6-.42.16-.18.29-.41.38-.67.09-.26.13-.56.13-.9Z"/>
    </g>
    <path id="punto" class="cls-3" d="m71.26,11.63c0-.16.03-.31.09-.45.06-.14.14-.26.25-.37.1-.1.23-.19.37-.25.14-.06.29-.09.45-.09s.31.03.45.09c.14.06.26.14.37.25.1.1.19.23.25.37.06.14.09.29.09.45s-.03.31-.09.45c-.06.14-.14.26-.25.37-.1.1-.23.19-.37.25-.14.06-.29.09-.45.09s-.31-.03-.45-.09c-.14-.06-.26-.14-.37-.25-.1-.1-.19-.23-.25-.37-.06-.14-.09-.29-.09-.45Z"/>
    <g id="unl">
      <path class="cls-3" d="m54.92,8.5h2.23v.03l-.19.41c-.03.06-.05.12-.07.18-.02.06-.02.12-.02.19v2.91c0,.39-.06.75-.19,1.08-.13.33-.31.62-.55.85-.24.24-.53.42-.87.56-.34.13-.73.2-1.16.2s-.82-.07-1.16-.2c-.34-.13-.63-.32-.87-.56-.24-.24-.42-.52-.55-.85-.13-.33-.19-.69-.19-1.08v-2.87c0-.08,0-.15-.02-.22-.02-.06-.04-.13-.07-.19l-.19-.41v-.03h2.23v.03l-.19.41c-.03.06-.06.12-.07.18-.02.06-.02.12-.02.19v2.87c0,.4.1.71.29.94.19.23.47.34.83.34s.65-.11.84-.34c.19-.23.28-.54.28-.94v-2.82c0-.08,0-.15-.02-.22-.02-.06-.04-.13-.07-.19l-.19-.41v-.03Z"/>
      <path class="cls-3" d="m59.86,14.84h-2.16v-.03l.19-.41c.03-.06.05-.12.07-.18.02-.06.03-.12.03-.19v-4.69c0-.08,0-.15-.02-.22-.02-.06-.04-.13-.07-.19l-.19-.41v-.03h1.46l3.09,2.77c-.02-.12-.03-.23-.03-.34,0-.11,0-.21,0-.32v-1.27c0-.08,0-.15-.02-.22-.02-.06-.04-.13-.07-.19l-.19-.41v-.03h2.16v.03l-.19.41c-.03.07-.06.13-.07.19-.02.06-.02.14-.02.22v4.69c0,.07,0,.13.02.19.02.06.04.11.07.18l.19.41v.03h-2.07v-.03l.16-.41c.02-.06.04-.12.06-.18.01-.06.02-.12.02-.19v-.63l-2.73-2.45c.02.13.04.26.05.39,0,.13,0,.26,0,.4v2.24c0,.08,0,.15.02.22.02.06.04.13.07.19l.19.41v.03Z"/>
      <path class="cls-3" d="m64.71,14.81l.19-.41c.03-.07.06-.13.07-.19.02-.06.02-.14.02-.22v-4.65c0-.08,0-.15-.02-.22-.02-.06-.04-.13-.07-.19l-.19-.41v-.03h2.22v.03l-.19.41c-.03.06-.06.12-.07.18-.02.06-.02.12-.02.19v4.17h1.73c.14,0,.27-.01.39-.03.12-.02.26-.08.41-.16l.42-.23h.02s-.35,1.78-.35,1.78h-4.57v-.03Z"/>
    </g>
    <g id="circulo">
      <path class="cls-3" d="m42.52,21.26c0,11.74-9.52,21.26-21.26,21.26S0,33,0,21.26,9.52,0,21.26,0s21.26,9.52,21.26,21.26Z"/>
      <g>
        <path class="cls-1" d="m7.69,18.53v2.15h2.91v1.52h-2.91v3.31h-1.98v-8.5h5.64l-.29,1.52h-3.37Z"/>
        <path class="cls-1" d="m19.65,25.51h-2.04l-.65-1.91h-3.23l-.64,1.91h-2.04l3.29-8.5h2.02l3.29,8.5Zm-3.13-3.25l-.79-2.33c-.06-.15-.12-.32-.19-.52-.07-.2-.13-.42-.2-.65-.06.24-.12.46-.19.66-.07.2-.13.38-.19.53l-.78,2.32h2.33Z"/>
        <path class="cls-1" d="m28.38,21.26c0,.61-.11,1.18-.32,1.7-.21.52-.51.97-.9,1.35-.38.38-.85.67-1.39.89-.54.21-1.14.32-1.81.32h-3.3v-8.5h3.3c.66,0,1.26.11,1.81.32.54.21,1.01.51,1.39.89.38.38.68.83.9,1.35.21.52.32,1.08.32,1.69Zm-2.02,0c0-.42-.05-.8-.16-1.14-.11-.34-.27-.62-.47-.86-.2-.23-.45-.42-.75-.54-.3-.13-.63-.19-1.01-.19h-1.32v5.47h1.32c.38,0,.71-.06,1.01-.19.29-.13.54-.31.75-.54.2-.24.36-.52.47-.86.11-.34.16-.72.16-1.14Z"/>
        <path class="cls-1" d="m33.27,23.95c.26,0,.5-.04.71-.13.21-.09.38-.21.53-.38.14-.16.25-.36.33-.6.08-.24.11-.5.11-.8v-5.04h1.97v5.04c0,.52-.08,1-.25,1.44-.17.44-.41.81-.73,1.13-.31.31-.7.56-1.15.73-.45.18-.96.26-1.52.26s-1.08-.09-1.53-.26c-.45-.17-.83-.42-1.15-.73s-.56-.69-.72-1.13c-.17-.44-.25-.91-.25-1.44v-5.04h1.97v5.03c0,.3.04.57.11.8.08.24.19.44.33.6.14.16.32.29.53.38.21.09.44.13.71.13Z"/>
      </g>
    </g>
  </g>
</svg>