<?xml version="1.0" encoding="utf-8"?>
<!-- Generator: Adobe Illustrator 27.5.0, SVG Export Plug-In . SVG Version: 6.00 Build 0)  -->
<svg version="1.1" id="Capa_1" xmlns="http://www.w3.org/2000/svg" xmlns:xlink="http://www.w3.org/1999/xlink" x="0px" y="0px"
	 viewBox="0 0 42.5 42.5" style="enable-background:new 0 0 42.5 42.5;" xml:space="preserve">
<style type="text/css">
	.st0{fill:#FBBA00;}
	.st1{fill:#FFFFFF;}
</style>
<g id="Logo">
	<g id="circulo">
		<path class="st0" d="M42.5,21.3c0,11.7-9.5,21.3-21.3,21.3S0,33,0,21.3S9.5,0,21.3,0S42.5,9.5,42.5,21.3z"/>
		<g>
			<path class="st1" d="M7.7,18.5v2.1h2.9v1.5H7.7v3.3h-2V17h5.6l-0.3,1.5C11.1,18.5,7.7,18.5,7.7,18.5z"/>
			<path class="st1" d="M19.6,25.5h-2L17,23.6h-3.2l-0.6,1.9h-2l3.3-8.5h2C16.4,17,19.7,25.5,19.6,25.5z M16.5,22.3l-0.8-2.3
				c-0.1-0.1-0.1-0.3-0.2-0.5s-0.1-0.4-0.2-0.6c-0.1,0.2-0.1,0.5-0.2,0.7S15,19.8,15,20l-0.8,2.3L16.5,22.3L16.5,22.3z"/>
			<path class="st1" d="M28.4,21.3c0,0.6-0.1,1.2-0.3,1.7s-0.5,1-0.9,1.4c-0.4,0.4-0.9,0.7-1.4,0.9c-0.5,0.2-1.1,0.3-1.8,0.3h-3.3
				V17H24c0.7,0,1.3,0.1,1.8,0.3c0.5,0.2,1,0.5,1.4,0.9s0.7,0.8,0.9,1.4C28.3,20.1,28.4,20.7,28.4,21.3L28.4,21.3z M26.4,21.3
				c0-0.4,0-0.8-0.2-1.1s-0.3-0.6-0.5-0.9c-0.2-0.2-0.5-0.4-0.8-0.5c-0.3-0.1-0.6-0.2-1-0.2h-1.3V24H24c0.4,0,0.7-0.1,1-0.2
				c0.3-0.1,0.5-0.3,0.8-0.5c0.2-0.2,0.4-0.5,0.5-0.9C26.3,22.1,26.4,21.7,26.4,21.3L26.4,21.3z"/>
			<path class="st1" d="M33.3,24c0.3,0,0.5,0,0.7-0.1c0.2-0.1,0.4-0.2,0.5-0.4c0.1-0.2,0.2-0.4,0.3-0.6S35,22.3,35,22v-5h2v5
				c0,0.5-0.1,1-0.2,1.4s-0.4,0.8-0.7,1.1c-0.3,0.3-0.7,0.6-1.2,0.7c-0.5,0.2-1,0.3-1.5,0.3s-1.1-0.1-1.5-0.3
				c-0.5-0.2-0.8-0.4-1.1-0.7s-0.6-0.7-0.7-1.1c-0.2-0.4-0.2-0.9-0.2-1.4v-5h2v5c0,0.3,0,0.6,0.1,0.8c0.1,0.2,0.2,0.4,0.3,0.6
				c0.1,0.2,0.3,0.3,0.5,0.4C32.8,23.9,33,23.9,33.3,24L33.3,24z"/>
		</g>
	</g>
</g>
</svg>
