<?xml version="1.0" encoding="UTF-8"?>
<svg id="Capa_1" data-name="Capa 1" xmlns="http://www.w3.org/2000/svg" viewBox="0 0 67.3125 16.28613">
  <defs>
    <style>
      .cls-1 {
        fill: #ccc;
      }
    </style>
  </defs>
  <g>
    <path class="cls-1" d="m5.60059,1.76562c-.05078.08887-.10449.15283-.16162.19287-.05664.04053-.12744.06055-.21191.06055-.08838,0-.18457-.03271-.2876-.09814-.10352-.06543-.22705-.13818-.37061-.21826-.14307-.08057-.31104-.15332-.50293-.21875-.19189-.06494-.41895-.09766-.68018-.09766-.23633,0-.44287.02832-.62012.08496-.17725.05713-.32617.13623-.44629.2373-.12012.10156-.20996.22266-.26904.36426-.05908.14111-.08838.29639-.08838.46484,0,.21533.06006.39453.18018.53809s.2793.26562.47803.36719c.19824.10107.42383.19189.67676.27197.25342.08008.5127.16553.77881.25635.26562.09082.5249.1958.77832.31641.25293.12012.47852.27197.67676.45557s.35791.4082.47803.67383.18018.58838.18018.96826c0,.41357-.0708.80078-.21191,1.16113-.1416.36084-.34814.67529-.62012.94287-.27197.26855-.60449.47949-.99658.63281-.39258.1543-.8418.23145-1.34814.23145-.29102,0-.57812-.02832-.86035-.08594-.28271-.05664-.55371-.1377-.81348-.24316-.25928-.10547-.50293-.23242-.73096-.37988-.22754-.14746-.43018-.3125-.60742-.49414l.5-.81592c.04199-.05908.09717-.1084.16455-.14844.06738-.04053.13916-.06055.21533-.06055.10547,0,.21924.04346.34131.12988.12256.08643.26807.18262.43701.28809.16846.10547.36572.20117.5918.2876.22559.08691.49658.12988.81299.12988.48486,0,.86035-.11475,1.12646-.34473.26562-.22998.39844-.56006.39844-.99023,0-.24072-.06006-.43701-.18018-.58887s-.27979-.2793-.47803-.38281c-.19824-.10303-.42383-.19092-.67676-.2627-.25342-.07178-.51074-.14941-.77197-.23389-.26172-.08447-.51904-.18555-.77246-.30371-.25293-.11816-.47852-.27246-.67676-.46191-.19873-.18994-.35791-.42725-.47803-.71191-.12012-.28516-.18018-.63623-.18018-1.05371,0-.3335.06641-.6582.19922-.97461s.32617-.59717.5791-.8418.56543-.44092.93652-.58838c.37109-.14795.79736-.22168,1.27832-.22168.54004,0,1.0376.08447,1.49365.25342.45557.16846.84375.40479,1.16406.7085l-.42383.80371Z"/>
    <path class="cls-1" d="m9.37842,9.25195h-1.7085V.10156h1.7085v9.15039Z"/>
    <path class="cls-1" d="m16.29492,1.76562c-.05078.08887-.10449.15283-.16162.19287-.05664.04053-.12744.06055-.21191.06055-.08838,0-.18457-.03271-.2876-.09814-.10352-.06543-.22705-.13818-.37061-.21826-.14307-.08057-.31104-.15332-.50293-.21875-.19189-.06494-.41895-.09766-.68018-.09766-.23633,0-.44287.02832-.62012.08496-.17725.05713-.32617.13623-.44629.2373-.12012.10156-.20996.22266-.26904.36426-.05908.14111-.08838.29639-.08838.46484,0,.21533.06006.39453.18018.53809s.2793.26562.47803.36719c.19824.10107.42383.19189.67676.27197.25342.08008.5127.16553.77881.25635.26562.09082.5249.1958.77832.31641.25293.12012.47852.27197.67676.45557s.35791.4082.47803.67383.18018.58838.18018.96826c0,.41357-.0708.80078-.21191,1.16113-.1416.36084-.34814.67529-.62012.94287-.27197.26855-.60449.47949-.99658.63281-.39258.1543-.8418.23145-1.34814.23145-.29102,0-.57812-.02832-.86035-.08594-.28271-.05664-.55371-.1377-.81348-.24316-.25928-.10547-.50293-.23242-.73096-.37988-.22754-.14746-.43018-.3125-.60742-.49414l.5-.81592c.04199-.05908.09717-.1084.16455-.14844.06738-.04053.13916-.06055.21533-.06055.10547,0,.21924.04346.34131.12988.12256.08643.26807.18262.43701.28809.16846.10547.36572.20117.5918.2876.22559.08691.49658.12988.81299.12988.48486,0,.86035-.11475,1.12646-.34473.26562-.22998.39844-.56006.39844-.99023,0-.24072-.06006-.43701-.18018-.58887s-.27979-.2793-.47803-.38281c-.19824-.10303-.42383-.19092-.67676-.2627-.25342-.07178-.51074-.14941-.77197-.23389-.26172-.08447-.51904-.18555-.77246-.30371-.25293-.11816-.47852-.27246-.67676-.46191-.19873-.18994-.35791-.42725-.47803-.71191-.12012-.28516-.18018-.63623-.18018-1.05371,0-.3335.06641-.6582.19922-.97461s.32617-.59717.5791-.8418.56543-.44092.93652-.58838c.37109-.14795.79736-.22168,1.27832-.22168.54004,0,1.0376.08447,1.49365.25342.45557.16846.84375.40479,1.16406.7085l-.42383.80371Z"/>
    <path class="cls-1" d="m24.75537,1.5h-2.75879v7.75195h-1.70264V1.5h-2.75879V.10156h7.22021v1.39844Z"/>
    <path class="cls-1" d="m27.6665,1.45557v2.5376h3.20215v1.31006h-3.20215v2.58838h4.0625v1.36035h-5.771V.10156h5.771v1.354h-4.0625Z"/>
    <path class="cls-1" d="m43.15723.10156v9.15039h-1.49902V3.34131c0-.23633.01221-.49121.0376-.76562l-2.76514,5.19531c-.13086.24854-.33154.37354-.60107.37354h-.24072c-.27002,0-.47021-.125-.60107-.37354l-2.79736-5.21436c.0127.13916.02344.27637.03174.41162.0083.13477.0127.25928.0127.37305v5.91064h-1.49951V.10156h1.28467c.07568,0,.14111.00195.1958.00635.05469.00391.10449.01465.14893.03125.04443.01709.08447.04443.12012.08252s.0708.08838.10449.15186l2.74023,5.08154c.07129.13525.13818.27441.19922.41748.06104.14355.12109.29102.18018.44287.05908-.15576.12061-.30664.18359-.45215.06348-.14551.13086-.28564.20264-.4209l2.70215-5.06885c.03369-.06348.06934-.11377.10742-.15186s.0791-.06543.12354-.08252c.04443-.0166.09375-.02734.14844-.03125.05518-.00439.12061-.00635.19629-.00635h1.28418Z"/>
    <path class="cls-1" d="m53.03613,9.25195h-1.31641c-.14746,0-.26758-.03711-.36035-.11035-.09277-.07422-.16211-.16602-.20898-.27539l-.68359-1.86719h-3.79004l-.68359,1.86719c-.03418.09668-.09961.18555-.19629.26562-.09766.08008-.21777.12012-.36035.12012h-1.3291L47.70801.10156h1.7334l3.59473,9.15039Zm-3.00586-3.45508l-1.11328-3.04395c-.05566-.13525-.1123-.29541-.1709-.48096-.05957-.18555-.11816-.38623-.17773-.60107-.05469.21484-.11133.4165-.1709.604-.05859.18799-.11621.35156-.1709.49072l-1.10742,3.03125h2.91113Z"/>
    <path class="cls-1" d="m58.8584,1.76562c-.05078.08887-.10449.15283-.16113.19287-.05762.04053-.12793.06055-.21191.06055-.08887,0-.18457-.03271-.28809-.09814s-.22656-.13818-.37012-.21826c-.14355-.08057-.31152-.15332-.50293-.21875-.19238-.06494-.41895-.09766-.68066-.09766-.23633,0-.44336.02832-.62012.08496-.17773.05713-.32617.13623-.44629.2373-.12012.10156-.20996.22266-.26855.36426-.05957.14111-.08887.29639-.08887.46484,0,.21533.05957.39453.18066.53809.12012.14355.2793.26562.47754.36719.19824.10107.42383.19189.67676.27197s.5127.16553.77832.25635.52539.1958.77832.31641c.25391.12012.47949.27197.67773.45557s.35742.4082.47754.67383.18066.58838.18066.96826c0,.41357-.07129.80078-.21191,1.16113-.1416.36084-.34863.67529-.62109.94287-.27148.26855-.60352.47949-.99609.63281-.39258.1543-.8418.23145-1.34766.23145-.29102,0-.57812-.02832-.86133-.08594-.28223-.05664-.55371-.1377-.8125-.24316-.25977-.10547-.50391-.23242-.73145-.37988s-.42969-.3125-.60742-.49414l.5-.81592c.04199-.05908.09668-.1084.16406-.14844.06836-.04053.13965-.06055.21582-.06055.10547,0,.21875.04346.3418.12988.12207.08643.26758.18262.43652.28809s.36621.20117.5918.2876c.22559.08691.49609.12988.8125.12988.48535,0,.86133-.11475,1.12695-.34473s.39844-.56006.39844-.99023c0-.24072-.05957-.43701-.18066-.58887-.12012-.15186-.2793-.2793-.47754-.38281-.19824-.10303-.42383-.19092-.67676-.2627s-.51074-.14941-.77246-.23389-.51855-.18555-.77148-.30371-.47949-.27246-.67773-.46191c-.19824-.18994-.35742-.42725-.47754-.71191-.12012-.28516-.18066-.63623-.18066-1.05371,0-.3335.06641-.6582.2002-.97461.13281-.31641.3252-.59717.57812-.8418.25391-.24463.56543-.44092.9375-.58838.37109-.14795.79688-.22168,1.27734-.22168.54004,0,1.03809.08447,1.49414.25342.45508.16846.84375.40479,1.16406.7085l-.42383.80371Z"/>
  </g>
  <g>
    <path class="cls-1" d="m1.31299,11.6416v1.49219h1.8833v.77051h-1.8833v1.52246h2.38965v.7998H.30811v-5.38184h3.39453v.79688H1.31299Z"/>
    <path class="cls-1" d="m7.4541,11.82324c-.02979.05273-.06104.08984-.09473.11426-.03369.02344-.0752.03516-.12451.03516-.05225,0-.10889-.01953-.16943-.05762-.06104-.03906-.1333-.08105-.21777-.12891-.08447-.04688-.18311-.08984-.2959-.12793-.11279-.03906-.24609-.05762-.3999-.05762-.13916,0-.26074.0166-.36475.0498-.10449.0332-.19189.08008-.2627.13965s-.12354.13086-.1582.21387-.05176.1748-.05176.27344c0,.12695.03516.23242.10596.31641.0708.08496.16406.15625.28076.21582s.24951.11328.39844.16016c.14893.04785.30127.09766.45752.15137.15674.05273.30908.11523.45801.18555.14893.07129.28174.16016.39844.26855.11621.10742.20996.23926.28076.39551s.10596.34668.10596.57031c0,.24316-.0415.4707-.12451.68262s-.20459.39648-.36475.55469c-.16016.15723-.35547.28125-.58643.37207-.23047.09082-.49463.13574-.79248.13574-.17139,0-.33984-.0166-.50635-.0498-.16602-.03418-.32568-.08203-.47803-.14355-.15283-.0625-.2959-.13672-.43018-.22363-.13379-.08691-.25293-.18359-.35693-.29004l.29395-.48047c.0249-.03418.05713-.06348.09668-.08691s.08203-.03613.12646-.03613c.06201,0,.12891.02637.20117.07715.07178.05078.15723.10645.25684.16895.09912.0625.21484.11816.34766.16895s.29248.07715.47852.07715c.28516,0,.50635-.06836.6626-.20312.15625-.13574.23438-.3291.23438-.58301,0-.14062-.03564-.25684-.10596-.3457-.0708-.08984-.16455-.16406-.28125-.22559-.1167-.06055-.24951-.1123-.39795-.1543-.14893-.04199-.30029-.08789-.4541-.1377-.1543-.0498-.30518-.10938-.4541-.17871s-.28174-.16016-.39844-.27148-.21045-.25098-.28076-.41895c-.0708-.16699-.10645-.37402-.10645-.61914,0-.19629.03906-.3877.11719-.57324.07861-.18652.19189-.35156.34082-.49512s.33252-.25977.55078-.34668c.21826-.08594.46875-.12988.75195-.12988.31738,0,.61035.0498.87842.14844.26758.09961.49609.23828.68457.41699l-.24951.47266Z"/>
    <path class="cls-1" d="m12.43018,11.66699h-1.62305v4.55957h-1.00098v-4.55957h-1.62256v-.82227h4.24658v.82227Z"/>
    <path class="cls-1" d="m17.33936,16.22656h-.9043c-.17139,0-.29541-.06738-.37256-.20117l-1.13135-1.72266c-.04199-.06445-.08887-.11035-.13965-.1377s-.12598-.04102-.2251-.04102h-.42773v2.10254h-1.00146v-5.38184h1.6416c.36475,0,.67773.03809.93945.11328.26172.07617.47656.18164.64404.31836s.29102.2998.37012.48926c.07959.19043.11914.39941.11914.62695,0,.18164-.02637.35254-.08008.51367-.05322.16211-.12988.30762-.23047.43945s-.22461.24707-.37207.34668c-.14795.09863-.31592.17676-.50439.23438.06445.03711.12402.08105.17871.13184.0542.05078.104.11133.14893.18066l1.34717,1.9873Zm-2.57568-2.82129c.18848,0,.35303-.02344.49316-.07031.14014-.04785.25537-.1123.34619-.19531.09033-.08301.1582-.18164.20264-.2959.04492-.11426.06738-.24023.06738-.37598,0-.27344-.09033-.48242-.27002-.62891s-.45459-.21973-.82422-.21973h-.64014v1.78613h.625Z"/>
    <path class="cls-1" d="m20.04492,15.41895c.19385,0,.3667-.03223.51953-.09668.15234-.06445.28076-.15527.38525-.27148.104-.11719.18408-.25879.23975-.4248.05615-.16602.08398-.35254.08398-.55762v-3.22363h1.00098v3.22363c0,.31934-.05127.61523-.1543.88672-.10303.27246-.25049.50684-.44287.7041s-.42627.35059-.70166.46094-.58545.16602-.93066.16602c-.34717,0-.65869-.05566-.93408-.16602s-.50928-.26367-.70166-.46094c-.19189-.19727-.33984-.43164-.44287-.7041-.10303-.27148-.1543-.56738-.1543-.88672v-3.22363h1.00098v3.21973c0,.20605.02832.3916.08398.55762.05566.16699.13623.30859.2417.42676.10547.11719.23486.20898.38721.27344.15283.06445.32568.09668.51904.09668Z"/>
    <path class="cls-1" d="m27.10156,14.95703c.05469,0,.10303.02148.14502.06348l.39453.42773c-.21826.27051-.48682.47852-.80566.62207s-.70166.21582-1.14795.21582c-.39941,0-.75879-.06836-1.07764-.20508-.31885-.13574-.59131-.32617-.81689-.56934-.22607-.24316-.39893-.5332-.51904-.87109-.12061-.33691-.18066-.70508-.18066-1.10449,0-.40527.06445-.77539.19336-1.11133s.31104-.62598.54541-.86914.51416-.43262.83936-.56738c.32471-.13574.68457-.20312,1.0791-.20312.39209,0,.74023.06445,1.04395.19336.3042.12891.56299.29785.77637.50684l-.33496.46484c-.02002.0293-.04541.05566-.07666.07812-.03076.02246-.07373.0332-.12842.0332-.03711,0-.07568-.00977-.11523-.03125s-.08301-.04688-.13037-.07812c-.04688-.03125-.10156-.06543-.16357-.10254s-.13379-.07129-.21582-.10254-.17676-.05664-.28467-.07812c-.10791-.02051-.23291-.03125-.37402-.03125-.24072,0-.46094.04297-.66064.12793-.19971.08594-.37158.20996-.51562.37207-.14404.16309-.25537.36133-.33496.5957s-.11914.50195-.11914.80273c0,.30273.04297.57129.12842.80762.08545.23535.20166.43359.34814.59473.14648.16211.31885.28516.51709.37109.19873.08496.41211.12793.64014.12793.13672,0,.26025-.00781.37061-.02246s.21191-.03809.30518-.07031c.09277-.03223.18115-.07422.26416-.125s.16553-.11328.24756-.1875c.0249-.02246.05078-.04102.07812-.05469s.05566-.02051.08545-.02051Z"/>
    <path class="cls-1" d="m32.08887,11.66699h-1.62305v4.55957h-1.00098v-4.55957h-1.62256v-.82227h4.24658v.82227Z"/>
    <path class="cls-1" d="m34.96191,15.41895c.19385,0,.3667-.03223.51953-.09668.15234-.06445.28076-.15527.38525-.27148.104-.11719.18408-.25879.23975-.4248.05615-.16602.08398-.35254.08398-.55762v-3.22363h1.00098v3.22363c0,.31934-.05127.61523-.1543.88672-.10303.27246-.25049.50684-.44287.7041s-.42627.35059-.70166.46094-.58545.16602-.93066.16602c-.34717,0-.65869-.05566-.93408-.16602s-.50928-.26367-.70166-.46094c-.19189-.19727-.33984-.43164-.44287-.7041-.10303-.27148-.1543-.56738-.1543-.88672v-3.22363h1.00098v3.21973c0,.20605.02832.3916.08398.55762.05566.16699.13623.30859.2417.42676.10547.11719.23486.20898.38721.27344.15283.06445.32568.09668.51904.09668Z"/>
    <path class="cls-1" d="m42.5249,16.22656h-.9043c-.17139,0-.29541-.06738-.37256-.20117l-1.13135-1.72266c-.04199-.06445-.08887-.11035-.13965-.1377s-.12598-.04102-.2251-.04102h-.42773v2.10254h-1.00146v-5.38184h1.6416c.36475,0,.67773.03809.93945.11328.26172.07617.47656.18164.64404.31836s.29102.2998.37012.48926c.07959.19043.11914.39941.11914.62695,0,.18164-.02637.35254-.08008.51367-.05322.16211-.12988.30762-.23047.43945s-.22461.24707-.37207.34668c-.14795.09863-.31592.17676-.50439.23438.06445.03711.12402.08105.17871.13184.0542.05078.104.11133.14893.18066l1.34717,1.9873Zm-2.57568-2.82129c.18848,0,.35303-.02344.49316-.07031.14014-.04785.25537-.1123.34619-.19531.09033-.08301.1582-.18164.20264-.2959.04492-.11426.06738-.24023.06738-.37598,0-.27344-.09033-.48242-.27002-.62891s-.45459-.21973-.82422-.21973h-.64014v1.78613h.625Z"/>
    <path class="cls-1" d="m47.7207,16.22656h-.77441c-.08691,0-.15723-.02148-.21191-.06543-.05469-.04297-.0957-.09668-.12305-.16113l-.40234-1.09863h-2.22949l-.40137,1.09863c-.02051.05664-.05859.1084-.11621.15625-.05664.04688-.12695.07031-.21094.07031h-.78223l2.11816-5.38184h1.01953l2.11426,5.38184Zm-1.76855-2.03223l-.6543-1.79004c-.03223-.0791-.06641-.17383-.10059-.2832-.03516-.10938-.06934-.22656-.10449-.35352-.03223.12695-.06543.24512-.10059.35547s-.06836.20703-.10059.28906l-.65137,1.78223h1.71191Z"/>
    <path class="cls-1" d="m51.43164,15.40039v.82617h-3.15234v-5.38184h1.00098v4.55566h2.15137Z"/>
    <path class="cls-1" d="m53.15039,11.6416v1.49219h1.88281v.77051h-1.88281v1.52246h2.38867v.7998h-3.39355v-5.38184h3.39355v.79688h-2.38867Z"/>
    <path class="cls-1" d="m59.29102,11.82324c-.0293.05273-.06152.08984-.09473.11426-.0332.02344-.0752.03516-.125.03516-.05176,0-.1084-.01953-.16895-.05762-.06055-.03906-.13379-.08105-.21777-.12891-.08398-.04688-.18262-.08984-.2959-.12793-.11328-.03906-.24609-.05762-.40039-.05762-.13867,0-.25977.0166-.36426.0498s-.19141.08008-.2627.13965c-.07031.05957-.12305.13086-.1582.21387-.03418.08301-.05176.1748-.05176.27344,0,.12695.03516.23242.10547.31641.07129.08496.16504.15625.28125.21582.11719.05957.24902.11328.39844.16016.14844.04785.30176.09766.45801.15137.15625.05273.30859.11523.45703.18555.14941.07129.28223.16016.39844.26855.11719.10742.21094.23926.28125.39551s.10645.34668.10645.57031c0,.24316-.04199.4707-.125.68262s-.20508.39648-.36523.55469c-.15918.15723-.35449.28125-.58594.37207-.23047.09082-.49512.13574-.79297.13574-.1709,0-.33984-.0166-.50586-.0498-.16602-.03418-.3252-.08203-.47852-.14355-.15234-.0625-.2959-.13672-.42969-.22363s-.25293-.18359-.35742-.29004l.29395-.48047c.02539-.03418.05762-.06348.09668-.08691.04004-.02344.08203-.03613.12695-.03613.0625,0,.12891.02637.20117.07715s.15723.10645.25684.16895c.09863.0625.21484.11816.34766.16895s.29199.07715.47852.07715c.28516,0,.50586-.06836.66211-.20312.15625-.13574.23438-.3291.23438-.58301,0-.14062-.03516-.25684-.10547-.3457-.07129-.08984-.16504-.16406-.28125-.22559-.11621-.06055-.24902-.1123-.39844-.1543-.14844-.04199-.2998-.08789-.4541-.1377-.15332-.0498-.30469-.10938-.4541-.17871-.14844-.06934-.28125-.16016-.39746-.27148-.11719-.11133-.21094-.25098-.28125-.41895-.07129-.16699-.10645-.37402-.10645-.61914,0-.19629.03906-.3877.11719-.57324.07812-.18652.19238-.35156.34082-.49512s.33203-.25977.55078-.34668c.21875-.08594.46875-.12988.75195-.12988.31738,0,.61035.0498.87793.14844.26855.09961.49609.23828.68555.41699l-.25.47266Z"/>
  </g>
  <path class="cls-1" d="m67.3125,16.28613h-3.03516V.03271h3.03516v16.25342Z"/>
</svg>