<?xml version="1.0" encoding="utf-8"?>
<!-- Generator: Adobe Illustrator 27.5.0, SVG Export Plug-In . SVG Version: 6.00 Build 0)  -->
<svg version="1.1" id="Capa_1" xmlns="http://www.w3.org/2000/svg" xmlns:xlink="http://www.w3.org/1999/xlink" x="0px" y="0px"
	 viewBox="0 0 219.23 42.52" style="enable-background:new 0 0 219.23 42.52;" xml:space="preserve">
<style type="text/css">
	.st0{fill:#A0A0A0;}
	.st1{fill:#FBBA00;}
	.st2{fill:#FFFFFF;}
</style>
<g id="Largo">
	<g id="fadu">
		<path class="st0" d="M77.72,14.31v1.75H80v1.03h-2.28v2.53H76.4v-6.35h4.12l-0.18,1.03h-2.62V14.31z"/>
		<path class="st0" d="M86.91,19.63h-1.36l-0.53-1.5h-2.53l-0.53,1.5h-1.36l2.48-6.35h1.34l2.48,6.35H86.91z M84.7,17.22l-0.69-1.94
			c-0.04-0.1-0.08-0.22-0.13-0.36c-0.04-0.14-0.09-0.29-0.13-0.45c-0.04,0.16-0.08,0.31-0.13,0.45c-0.05,0.14-0.09,0.26-0.13,0.36
			l-0.68,1.93h1.89L84.7,17.22z"/>
		<path class="st0" d="M91.75,14.82c-0.24-0.16-0.48-0.29-0.73-0.37c-0.25-0.09-0.5-0.13-0.75-0.13s-0.47,0.04-0.69,0.13
			c-0.22,0.08-0.41,0.21-0.57,0.39c-0.16,0.17-0.29,0.4-0.39,0.67s-0.14,0.59-0.14,0.95s0.05,0.69,0.15,0.96
			c0.1,0.27,0.24,0.5,0.41,0.67c0.17,0.18,0.37,0.31,0.6,0.4c0.22,0.09,0.46,0.13,0.7,0.13s0.51-0.05,0.77-0.14
			c0.26-0.09,0.5-0.23,0.72-0.41l0.69,0.63c-0.15,0.18-0.3,0.34-0.48,0.47c-0.17,0.13-0.36,0.23-0.55,0.31
			c-0.2,0.08-0.4,0.13-0.61,0.17s-0.44,0.05-0.67,0.05c-0.48,0-0.92-0.08-1.3-0.25s-0.7-0.4-0.97-0.69
			c-0.26-0.29-0.46-0.63-0.6-1.03c-0.14-0.39-0.21-0.82-0.21-1.28s0.08-0.91,0.23-1.3c0.15-0.4,0.37-0.74,0.65-1.03
			s0.61-0.51,1-0.67s0.81-0.24,1.28-0.24s0.85,0.07,1.2,0.21s0.65,0.33,0.9,0.56l-0.63,0.83L91.75,14.82z"/>
		<path class="st0" d="M95.86,18.58c0.21,0,0.4-0.04,0.57-0.11s0.31-0.17,0.43-0.3s0.21-0.29,0.27-0.48
			c0.06-0.19,0.09-0.4,0.09-0.63v-3.78h1.31v3.78c0,0.38-0.06,0.74-0.19,1.06c-0.12,0.32-0.3,0.6-0.53,0.83s-0.51,0.42-0.84,0.55
			c-0.33,0.13-0.7,0.2-1.12,0.2s-0.79-0.07-1.12-0.2c-0.33-0.13-0.61-0.31-0.84-0.55s-0.41-0.51-0.53-0.83
			c-0.12-0.32-0.19-0.68-0.19-1.06v-3.78h1.31v3.78c0,0.23,0.03,0.44,0.09,0.63c0.06,0.19,0.15,0.35,0.27,0.48
			c0.12,0.13,0.26,0.23,0.43,0.3s0.36,0.11,0.58,0.11H95.86z"/>
		<path class="st0" d="M103.64,18.56l-0.19,1.07h-3.67v-6.35h1.31v5.28H103.64z"/>
		<path class="st0" d="M108.75,14.34h-1.76v5.29h-1.32v-5.29h-1.86v-1.06h5.12L108.75,14.34z"/>
		<path class="st0" d="M115.19,19.63h-1.36l-0.53-1.5h-2.53l-0.53,1.5h-1.36l2.48-6.35h1.34l2.48,6.35H115.19z M112.98,17.22
			l-0.69-1.94c-0.04-0.1-0.08-0.22-0.13-0.36c-0.04-0.14-0.09-0.29-0.13-0.45c-0.04,0.16-0.08,0.31-0.13,0.45
			c-0.05,0.14-0.09,0.26-0.13,0.36l-0.68,1.93h1.89L112.98,17.22z"/>
		<path class="st0" d="M121.47,16.46c0,0.46-0.08,0.89-0.23,1.28c-0.16,0.39-0.38,0.72-0.66,1c-0.28,0.28-0.63,0.5-1.03,0.66
			s-0.84,0.24-1.33,0.24h-2.44v-6.35h2.44c0.49,0,0.93,0.08,1.33,0.24s0.74,0.38,1.03,0.66c0.28,0.28,0.5,0.62,0.66,1
			C121.4,15.58,121.47,16,121.47,16.46z M120.12,16.46c0-0.33-0.04-0.63-0.13-0.9c-0.09-0.27-0.21-0.49-0.38-0.67
			s-0.36-0.33-0.6-0.42c-0.23-0.1-0.5-0.15-0.8-0.15h-1.12v4.29h1.12c0.3,0,0.56-0.05,0.8-0.15c0.24-0.1,0.43-0.24,0.6-0.42
			c0.16-0.18,0.29-0.41,0.38-0.68S120.12,16.79,120.12,16.46z"/>
		<path class="st0" d="M130.21001,16.46c0,0.46-0.08,0.89-0.23,1.28c-0.16,0.39-0.38,0.72-0.66,1s-0.63,0.5-1.03,0.66
			s-0.84,0.24-1.33,0.24h-2.44v-6.35h2.44c0.49,0,0.93,0.08,1.33,0.24c0.39999,0.16,0.74001,0.38,1.03,0.66
			c0.28,0.28,0.5,0.62,0.66,1C130.14001,15.58,130.21001,16,130.21001,16.46z M128.86,16.46c0-0.33-0.03999-0.63-0.13-0.9
			c-0.09-0.27-0.21001-0.49-0.38-0.67c-0.16-0.18-0.36-0.33-0.6-0.42c-0.23-0.1-0.5-0.15-0.8-0.15h-1.12v4.29h1.12
			c0.3,0,0.56-0.05,0.8-0.15c0.24-0.1,0.43-0.24,0.6-0.42c0.16-0.18,0.28999-0.41,0.38-0.68
			C128.81999,17.09,128.86,16.79,128.86,16.46z"/>
		<path class="st0" d="M132.49001,14.31v1.63h2.12v0.99h-2.12v1.67h2.81l-0.17999,1.03h-3.95v-6.35h4.14l-0.17999,1.03h-2.63
			H132.49001z"/>
		<path class="st0" d="M56.96,29.22H55.6l-0.53-1.5h-2.53l-0.53,1.5h-1.36l2.48-6.35h1.34l2.48,6.35H56.96z M54.76,26.81l-0.69-1.94
			c-0.04-0.1-0.08-0.22-0.13-0.36c-0.04-0.14-0.09-0.29-0.13-0.45c-0.04,0.16-0.08,0.31-0.13,0.45c-0.05,0.14-0.09,0.26-0.13,0.36
			l-0.68,1.93h1.89L54.76,26.81z"/>
		<path class="st0" d="M62.6,29.22h-1.51l-1.37-2.2c-0.05-0.08-0.1-0.13-0.16-0.17s-0.15-0.05-0.27-0.05h-0.45v2.42h-1.31v-6.35h2
			c0.32,0,0.63,0.03,0.92,0.09c0.3,0.06,0.56,0.16,0.8,0.3c0.23,0.14,0.42,0.33,0.56,0.57s0.21,0.54,0.21,0.89
			c0,0.22-0.03,0.43-0.1,0.62c-0.06,0.19-0.15,0.36-0.27,0.52c-0.12,0.15-0.26,0.29-0.42,0.4s-0.35,0.21-0.55,0.28
			c0.09,0.05,0.17,0.11,0.24,0.17c0.07,0.06,0.13,0.14,0.19,0.23l1.48,2.29L62.6,29.22z M59.52,25.88c0.17,0,0.34-0.02,0.49-0.06
			c0.15-0.04,0.28-0.11,0.39-0.19c0.11-0.09,0.19-0.2,0.25-0.33s0.09-0.29,0.09-0.47s-0.03-0.34-0.1-0.46
			c-0.07-0.12-0.15-0.22-0.27-0.29c-0.11-0.07-0.24-0.12-0.39-0.15c-0.15-0.03-0.3-0.05-0.46-0.05h-0.68v2.01h0.67L59.52,25.88z"/>
		<path class="st0" d="M69.7,30.44h-1.59l-1.12-1.25c-0.28,0.07-0.58,0.1-0.88,0.1c-0.49,0-0.93-0.08-1.33-0.25
			c-0.4-0.16-0.74-0.39-1.03-0.68s-0.51-0.63-0.66-1.03c-0.16-0.4-0.23-0.83-0.23-1.29s0.08-0.89,0.23-1.29
			c0.16-0.4,0.38-0.74,0.66-1.03c0.29-0.29,0.63-0.52,1.03-0.68s0.84-0.25,1.33-0.25s0.93,0.08,1.33,0.25
			c0.4,0.16,0.74,0.39,1.03,0.68c0.28,0.29,0.5,0.63,0.66,1.03c0.16,0.39,0.23,0.82,0.23,1.28c0,0.28-0.03,0.55-0.08,0.8
			c-0.06,0.26-0.14,0.5-0.25,0.72s-0.24,0.43-0.4,0.62s-0.33,0.36-0.53,0.5l1.61,1.75L69.7,30.44z M64.2,26.05
			c0,0.34,0.04,0.64,0.13,0.9s0.21,0.49,0.38,0.67s0.37,0.32,0.6,0.42c0.24,0.1,0.5,0.15,0.8,0.15s0.56-0.05,0.8-0.15
			c0.24-0.1,0.43-0.24,0.6-0.42c0.17-0.19,0.29-0.41,0.38-0.67s0.13-0.56,0.13-0.9s-0.04-0.63-0.13-0.89s-0.21-0.49-0.38-0.67
			c-0.16-0.18-0.36-0.33-0.6-0.42c-0.23-0.1-0.5-0.15-0.8-0.15s-0.56,0.05-0.8,0.15c-0.24,0.1-0.44,0.24-0.6,0.42
			c-0.16,0.19-0.29,0.41-0.38,0.67S64.2,25.72,64.2,26.05z"/>
		<path class="st0" d="M72.92,28.17c0.21,0,0.4-0.04,0.57-0.11s0.31-0.17,0.43-0.3s0.21-0.29,0.27-0.48
			c0.06-0.19,0.09-0.4,0.09-0.63v-3.78h1.31v3.78c0,0.38-0.06,0.74-0.19,1.06c-0.12,0.32-0.3,0.6-0.53,0.83
			c-0.23,0.23-0.51,0.41-0.84,0.55c-0.33,0.13-0.7,0.2-1.12,0.2s-0.79-0.06-1.12-0.2c-0.33-0.13-0.61-0.31-0.84-0.55
			c-0.23-0.23-0.41-0.51-0.53-0.83c-0.12-0.32-0.19-0.68-0.19-1.06v-3.78h1.31v3.78c0,0.23,0.03,0.44,0.09,0.63
			c0.06,0.19,0.15,0.35,0.27,0.48c0.12,0.13,0.26,0.23,0.43,0.3s0.36,0.11,0.58,0.11H72.92z"/>
		<path class="st0" d="M78.17,29.22h-1.32v-6.35h1.32V29.22z"/>
		<path class="st0" d="M83.9,23.93h-1.76v5.29h-1.32v-5.29h-1.86v-1.06h5.12L83.9,23.93z"/>
		<path class="st0" d="M86.1,23.9v1.63h2.12v0.99H86.1v1.67h2.81l-0.18,1.03h-3.95v-6.35h4.14l-0.18,1.03h-2.63H86.1z"/>
		<path class="st0" d="M94.07,24.41c-0.24-0.16-0.48-0.29-0.73-0.37s-0.5-0.13-0.75-0.13s-0.47,0.04-0.69,0.13
			c-0.22,0.09-0.41,0.21-0.57,0.39c-0.16,0.17-0.29,0.4-0.39,0.66c-0.1,0.27-0.14,0.59-0.14,0.95s0.05,0.69,0.15,0.96
			c0.1,0.27,0.24,0.5,0.41,0.67c0.17,0.18,0.37,0.31,0.6,0.4c0.22,0.09,0.46,0.13,0.7,0.13s0.51-0.05,0.77-0.14
			c0.26-0.09,0.5-0.23,0.72-0.4l0.69,0.63c-0.15,0.18-0.3,0.34-0.48,0.47c-0.17,0.13-0.36,0.23-0.55,0.31
			c-0.2,0.08-0.4,0.13-0.61,0.17s-0.44,0.05-0.67,0.05c-0.48,0-0.92-0.08-1.3-0.25c-0.38-0.17-0.7-0.4-0.97-0.69
			s-0.46-0.63-0.6-1.03c-0.14-0.39-0.21-0.82-0.21-1.28s0.08-0.91,0.23-1.3c0.15-0.4,0.37-0.74,0.65-1.03s0.61-0.51,1-0.67
			s0.81-0.24,1.28-0.24s0.85,0.07,1.2,0.21s0.65,0.33,0.9,0.56l-0.63,0.83L94.07,24.41z"/>
		<path class="st0" d="M99.97,23.93h-1.76v5.29h-1.32v-5.29h-1.86v-1.06h5.12L99.97,23.93z"/>
		<path class="st0" d="M103.46,28.17c0.21,0,0.4-0.04,0.57-0.11s0.31-0.17,0.43-0.3s0.21-0.29,0.27-0.48
			c0.06-0.19,0.09-0.4,0.09-0.63v-3.78h1.31v3.78c0,0.38-0.06,0.74-0.19,1.06c-0.12,0.32-0.3,0.6-0.53,0.83
			c-0.23,0.23-0.51,0.41-0.84,0.55c-0.33,0.13-0.7,0.2-1.12,0.2s-0.79-0.06-1.12-0.2c-0.33-0.13-0.61-0.31-0.84-0.55
			c-0.23-0.23-0.41-0.51-0.53-0.83c-0.12-0.32-0.19-0.68-0.19-1.06v-3.78h1.31v3.78c0,0.23,0.03,0.44,0.09,0.63
			c0.06,0.19,0.15,0.35,0.27,0.48c0.12,0.13,0.26,0.23,0.43,0.3s0.36,0.11,0.58,0.11H103.46z"/>
		<path class="st0" d="M112.44,29.22h-1.51l-1.37-2.2c-0.05-0.08-0.1-0.13-0.16-0.17c-0.06-0.04-0.15-0.05-0.27-0.05h-0.45v2.42
			h-1.31v-6.35h2c0.32,0,0.63,0.03,0.92,0.09c0.3,0.06,0.56,0.16,0.8,0.3c0.23,0.14,0.42,0.33,0.56,0.57s0.21,0.54,0.21,0.89
			c0,0.22-0.03,0.43-0.1,0.62c-0.06,0.19-0.15,0.36-0.27,0.52c-0.12,0.15-0.26,0.29-0.42,0.4c-0.17,0.11-0.35,0.21-0.55,0.28
			c0.09,0.05,0.17,0.11,0.24,0.17s0.13,0.14,0.19,0.23l1.48,2.29L112.44,29.22z M109.36,25.88c0.17,0,0.34-0.02,0.49-0.06
			c0.15-0.04,0.28-0.11,0.39-0.19c0.11-0.09,0.19-0.2,0.25-0.33s0.09-0.29,0.09-0.47s-0.03-0.34-0.1-0.46
			c-0.07-0.12-0.15-0.22-0.27-0.29c-0.11-0.07-0.24-0.12-0.39-0.15c-0.15-0.03-0.3-0.05-0.46-0.05h-0.68v2.01h0.67L109.36,25.88z"/>
		<path class="st0" d="M118.62,29.22h-1.36l-0.53-1.5h-2.53l-0.53,1.5h-1.36l2.48-6.35h1.34l2.48,6.35H118.62z M116.41,26.81
			l-0.69-1.94c-0.04-0.1-0.08-0.22-0.13-0.36s-0.09-0.29-0.13-0.45c-0.04,0.16-0.08,0.31-0.13,0.45c-0.05,0.14-0.09,0.26-0.13,0.36
			l-0.68,1.93h1.89L116.41,26.81z"/>
		<path class="st0" d="M118.9,30.13c0.14-0.13,0.26-0.27,0.37-0.42c0.11-0.14,0.19-0.31,0.25-0.5c-0.1,0-0.18-0.03-0.26-0.07
			c-0.08-0.04-0.15-0.09-0.2-0.15c-0.06-0.06-0.1-0.13-0.13-0.22c-0.03-0.08-0.05-0.17-0.05-0.26c0-0.1,0.02-0.18,0.05-0.26
			c0.04-0.08,0.09-0.14,0.15-0.2c0.06-0.05,0.13-0.09,0.22-0.12c0.08-0.03,0.17-0.04,0.26-0.04c0.11,0,0.22,0.02,0.31,0.06
			c0.14,0.07,0.25,0.17,0.3,0.3c0.06,0.13,0.09,0.27,0.09,0.42c0,0.18-0.03,0.35-0.08,0.52s-0.13,0.34-0.22,0.49
			c-0.09,0.16-0.2,0.3-0.33,0.44c-0.12,0.14-0.25,0.26-0.39,0.36l-0.35-0.36L118.9,30.13z"/>
		<path class="st0" d="M129.05,26.04c0,0.46-0.08,0.89-0.23,1.28c-0.16,0.39-0.38,0.72-0.66,1s-0.63,0.5-1.03,0.66
			s-0.84,0.24-1.33,0.24h-2.44v-6.35h2.44c0.49,0,0.93,0.08,1.33,0.24s0.74,0.38,1.03,0.66c0.28,0.28,0.5,0.62,0.66,1.01
			s0.23,0.81,0.23,1.27V26.04z M127.7,26.04c0-0.33-0.04-0.63-0.13-0.9s-0.21-0.49-0.38-0.67s-0.36-0.32-0.6-0.42
			c-0.23-0.1-0.5-0.15-0.8-0.15h-1.12v4.29h1.12c0.3,0,0.56-0.05,0.8-0.15c0.24-0.1,0.43-0.24,0.6-0.42
			c0.16-0.19,0.29-0.41,0.38-0.68S127.7,26.37,127.7,26.04z"/>
		<path class="st0" d="M131.33,29.22h-1.32001v-6.35H131.33V29.22z"/>
		<path class="st0" d="M135.85001,24.33c-0.08-0.07-0.17999-0.14-0.28-0.2c-0.10001-0.06-0.21001-0.11-0.33-0.15
			c-0.11-0.04-0.23-0.07-0.35001-0.09c-0.12-0.02-0.23-0.03-0.35001-0.03c-0.12,0-0.24001,0.01-0.35001,0.04s-0.2,0.07-0.28,0.13
			s-0.14,0.13-0.19,0.23c-0.05,0.09-0.07001,0.2-0.07001,0.33c0,0.14,0.03999,0.26,0.12,0.35s0.19,0.17,0.33,0.24
			s0.28999,0.13,0.46001,0.18c0.17,0.05,0.35001,0.11,0.53,0.17s0.36,0.14,0.53,0.22s0.33,0.19,0.46001,0.32s0.24001,0.29,0.33,0.47
			c0.08,0.19,0.12,0.41,0.12,0.68c0,0.35-0.06,0.65-0.19,0.9s-0.28999,0.47-0.49001,0.65c-0.2,0.17-0.44,0.3-0.7,0.39
			s-0.53,0.13-0.8,0.13c-0.41,0-0.8-0.07-1.16-0.21c-0.37-0.14-0.69-0.35-0.98-0.62l0.53999-0.81c0.12,0.08,0.24001,0.16,0.37,0.23
			c0.13,0.07,0.25999,0.14,0.39999,0.19c0.13,0.05,0.27,0.1,0.39999,0.13c0.14,0.03,0.27,0.05,0.39999,0.05
			c0.14,0,0.27-0.02,0.38-0.05c0.12-0.03,0.22-0.09,0.3-0.16c0.09-0.07,0.14999-0.16,0.2-0.26c0.05-0.11,0.07001-0.23,0.07001-0.37
			c0-0.16-0.03999-0.29-0.12-0.39s-0.19-0.18-0.33-0.25c-0.13-0.07-0.28999-0.12-0.46001-0.17c-0.17-0.05-0.35001-0.1-0.53-0.16
			s-0.36-0.13-0.53-0.21s-0.33-0.19-0.46001-0.32s-0.24001-0.3-0.33-0.5c-0.08-0.2-0.12-0.45-0.12-0.74c0-0.2,0.03-0.38,0.09-0.56
			c0.06-0.17,0.14-0.33,0.25-0.48c0.11-0.14,0.24001-0.27,0.38-0.38c0.14999-0.11,0.31-0.2,0.5-0.27
			c0.25999-0.11,0.56-0.16,0.91-0.16c0.17,0,0.34,0.01,0.50999,0.04c0.17,0.02,0.34,0.06,0.5,0.12c0.16,0.05,0.32001,0.12,0.47,0.21
			c0.14999,0.09,0.28999,0.19,0.41,0.31l-0.58,0.85L135.85001,24.33z"/>
		<path class="st0" d="M138.81,23.9v1.63h2.12v0.99h-2.12v1.67h2.81L141.44,29.22h-3.95v-6.35h4.14l-0.17999,1.03h-2.63H138.81z"/>
		<path class="st0" d="M147.99001,22.87v6.35h-1.31v-1.7l0.31,0.35L143.5,24.55l0.22-0.06c0,0.1,0.02,0.2,0.02,0.3
			c0,0.1,0,0.19,0,0.28v4.14h-1.28999v-6.35h0.92l3.59,3.44l-0.25999,0.07c-0.00999-0.11-0.02-0.22-0.03-0.32c0-0.1,0-0.2,0-0.3
			v-2.9h1.31L147.99001,22.87z M145.77,21.72c0.06,0,0.12-0.01,0.17-0.04c0.05-0.02,0.08-0.06,0.11-0.1s0.05-0.08,0.07001-0.13
			c0.00999-0.05,0.02-0.09,0.02-0.14h0.73c0,0.15-0.02,0.3-0.06,0.44c-0.03999,0.14-0.10001,0.26-0.17999,0.37
			c-0.08,0.11-0.17999,0.2-0.3,0.26c-0.12,0.07-0.25,0.1-0.41,0.1s-0.28999-0.02-0.39999-0.07c-0.11-0.04-0.21001-0.09-0.3-0.15
			c-0.09-0.05-0.17-0.1-0.25-0.15c-0.07001-0.04-0.14999-0.07-0.23-0.07c-0.06,0-0.12,0.01-0.16,0.04
			c-0.03999,0.03-0.08,0.06-0.11,0.1s-0.05,0.08-0.06,0.13s-0.02,0.09-0.02,0.13h-0.74001c0-0.15,0.02-0.3,0.06-0.44
			c0.03999-0.14,0.10001-0.27,0.17999-0.38c0.08-0.11,0.17999-0.2,0.3-0.26c0.12-0.07,0.25-0.1,0.41-0.1S144.89,21.28,145,21.33
			s0.21001,0.1,0.3,0.15s0.17,0.1,0.24001,0.15s0.14999,0.07,0.23,0.07V21.72z"/>
		<path class="st0" d="M155.41,26.04c0,0.46-0.08,0.89-0.23,1.29c-0.16,0.4-0.38,0.74-0.66,1.03s-0.63,0.52-1.03,0.68
			s-0.84,0.25-1.33,0.25s-0.92999-0.08-1.33-0.25c-0.39999-0.16-0.74001-0.39-1.03-0.68s-0.50999-0.63-0.66-1.03
			c-0.16-0.4-0.23-0.83-0.23-1.29s0.08-0.89,0.23-1.29c0.16-0.4,0.38-0.74,0.66-1.03c0.28999-0.29,0.63-0.52,1.03-0.68
			s0.84-0.25,1.33-0.25s0.92999,0.08,1.33,0.25s0.74001,0.39,1.03,0.68c0.28,0.29,0.5,0.63,0.66,1.03c0.16,0.39,0.23,0.82,0.23,1.28
			V26.04z M154.07001,26.04c0-0.33-0.03999-0.63-0.13-0.89c-0.09-0.26-0.21001-0.49-0.38-0.67c-0.16-0.18-0.37-0.33-0.60001-0.42
			c-0.24001-0.1-0.5-0.15-0.8-0.15s-0.56,0.05-0.8,0.15s-0.44,0.24-0.60001,0.42c-0.16,0.19-0.28999,0.41-0.38,0.67
			c-0.09,0.26-0.13,0.56-0.13,0.89s0.03999,0.64,0.13,0.9c0.09,0.26,0.21001,0.49,0.38,0.67s0.37,0.32,0.60001,0.42
			c0.24001,0.1,0.5,0.15,0.8,0.15s0.56-0.05,0.8-0.15c0.23-0.1,0.42999-0.24,0.60001-0.42c0.16-0.19,0.28999-0.41,0.38-0.67
			C154.03,26.68,154.07001,26.38,154.07001,26.04z"/>
		<path class="st0" d="M161.32001,26.78v2.44h-1.31v-2.44l-2.31-3.91h1.44l1.19,2.29c0.07001,0.13,0.13,0.26,0.19,0.38
			c0.06,0.12,0.11,0.23,0.14999,0.35c0.03999-0.12,0.09-0.23,0.14-0.35s0.11-0.24,0.17999-0.37l1.17999-2.29h1.44l-2.31,3.91
			L161.32001,26.78z"/>
		<path class="st0" d="M168.88,28.17c0.21001,0,0.39999-0.04,0.57001-0.11c0.17-0.07,0.31-0.17,0.42999-0.3s0.21001-0.29,0.27-0.48
			c0.06-0.19,0.09-0.4,0.09-0.63v-3.78h1.31v3.78c0,0.38-0.06,0.74-0.19,1.06c-0.12,0.32-0.3,0.6-0.53,0.83s-0.50999,0.41-0.84,0.55
			c-0.33,0.13-0.7,0.2-1.12,0.2s-0.78999-0.06-1.12-0.2c-0.33-0.13-0.61-0.31-0.84-0.55c-0.23-0.23-0.41-0.51-0.53-0.83
			s-0.19-0.68-0.19-1.06v-3.78h1.31v3.78c0,0.23,0.03,0.44,0.09,0.63c0.06,0.19,0.14999,0.35,0.27,0.48
			c0.12,0.13,0.25999,0.23,0.42999,0.3s0.36,0.11,0.58,0.11H168.88z"/>
		<path class="st0" d="M177.87,29.22H176.36l-1.37-2.2c-0.05-0.08-0.10001-0.13-0.16-0.17s-0.14999-0.05-0.27-0.05h-0.45v2.42h-1.31
			v-6.35h2c0.32001,0,0.63,0.03,0.92,0.09c0.3,0.06,0.56,0.16,0.8,0.3c0.23,0.14,0.42,0.33,0.56,0.57s0.21001,0.54,0.21001,0.89
			c0,0.22-0.03,0.43-0.10001,0.62c-0.06,0.19-0.14999,0.36-0.27,0.52c-0.12,0.15-0.25999,0.29-0.42,0.4s-0.35001,0.21-0.55,0.28
			c0.09,0.05,0.17,0.11,0.24001,0.17s0.13,0.14,0.19,0.23l1.48,2.29L177.87,29.22z M174.78999,25.88c0.17,0,0.34-0.02,0.49001-0.06
			c0.14999-0.04,0.28-0.11,0.39-0.19c0.11-0.09,0.19-0.2,0.25-0.33s0.09-0.29,0.09-0.47s-0.03-0.34-0.10001-0.46
			c-0.07001-0.12-0.14999-0.22-0.27-0.29c-0.11-0.07-0.24001-0.12-0.39-0.15c-0.14999-0.03-0.3-0.05-0.46001-0.05h-0.67999v2.01
			h0.67L174.78999,25.88z"/>
		<path class="st0" d="M180.74001,22.87c0.42999,0,0.78999,0.04,1.09,0.12s0.55,0.19,0.74001,0.34s0.33,0.33,0.42,0.54
			c0.09,0.21,0.13,0.45,0.13,0.71c0,0.14-0.02,0.29-0.06,0.42s-0.11,0.26-0.2,0.38c-0.09,0.12-0.2,0.22-0.34,0.32
			s-0.31,0.18-0.5,0.25c0.42999,0.1,0.75,0.27,0.96001,0.5s0.31,0.53,0.31,0.9c0,0.27-0.05,0.52-0.16,0.75
			c-0.10001,0.23-0.25,0.43-0.45,0.6s-0.44,0.3-0.73,0.4c-0.28999,0.09-0.62,0.14-1,0.14h-2.46001v-6.35h2.25L180.74001,22.87z
			 M179.8,23.87v1.71h0.86c0.17999,0,0.35001-0.02,0.49001-0.05c0.14-0.03,0.25999-0.08,0.36-0.15s0.17-0.16,0.22-0.27
			s0.08-0.24,0.08-0.4s-0.02-0.29-0.06-0.4c-0.03999-0.11-0.11-0.2-0.19-0.27c-0.09-0.07-0.2-0.12-0.33-0.15
			c-0.13-0.03-0.28999-0.05-0.48-0.05h-0.94L179.8,23.87z M180.92,28.21c0.21001,0,0.38-0.03,0.52-0.08s0.24001-0.12,0.33-0.2
			c0.08-0.08,0.14-0.18,0.17-0.29s0.05-0.22,0.05-0.34c0-0.13-0.02-0.24-0.06-0.35c-0.03999-0.1-0.10001-0.19-0.17999-0.26
			c-0.08-0.07-0.2-0.12-0.33-0.16c-0.14-0.04-0.3-0.06-0.5-0.06h-1.12v1.74h1.12L180.92,28.21z"/>
		<path class="st0" d="M189.85001,29.22h-1.36l-0.53-1.5h-2.53l-0.53,1.5h-1.36l2.48-6.35h1.34l2.48,6.35H189.85001z M187.64,26.81
			l-0.69-1.94c-0.03999-0.1-0.08-0.22-0.13-0.36s-0.09-0.29-0.13-0.45c-0.03999,0.16-0.08,0.31-0.13,0.45
			c-0.05,0.14-0.09,0.26-0.13,0.36l-0.67999,1.93h1.89L187.64,26.81z"/>
		<path class="st0" d="M195.96001,22.87v6.35h-1.31v-1.7l0.31,0.35L191.47,24.55l0.22-0.06c0,0.1,0.02,0.2,0.02,0.3
			c0,0.1,0,0.19,0,0.28v4.14h-1.28999v-6.35h0.92l3.59,3.44l-0.25999,0.07c-0.00999-0.11-0.02-0.22-0.03-0.32s0-0.2,0-0.3v-2.9h1.31
			L195.96001,22.87z"/>
		<path class="st0" d="M198.62,29.22h-1.32001v-6.35H198.62V29.22z"/>
		<path class="st0" d="M203.13,24.33c-0.08-0.07-0.17999-0.14-0.28-0.2c-0.10001-0.06-0.21001-0.11-0.33-0.15
			c-0.11-0.04-0.23-0.07-0.35001-0.09c-0.12-0.02-0.23-0.03-0.35001-0.03c-0.12,0-0.24001,0.01-0.35001,0.04s-0.2,0.07-0.28,0.13
			s-0.14,0.13-0.19,0.23c-0.05,0.09-0.07001,0.2-0.07001,0.33c0,0.14,0.03999,0.26,0.12,0.35s0.19,0.17,0.33,0.24
			s0.28999,0.13,0.46001,0.18c0.17,0.05,0.35001,0.11,0.53,0.17s0.36,0.14,0.53,0.22s0.33,0.19,0.46001,0.32s0.24001,0.29,0.33,0.47
			c0.08,0.19,0.12,0.41,0.12,0.68c0,0.35-0.06,0.65-0.19,0.9s-0.28999,0.47-0.49001,0.65c-0.2,0.17-0.44,0.3-0.7,0.39
			s-0.53,0.13-0.8,0.13c-0.41,0-0.8-0.07-1.16-0.21c-0.37-0.14-0.69-0.35-0.98-0.62l0.53999-0.81c0.12,0.08,0.24001,0.16,0.37,0.23
			c0.13,0.07,0.25999,0.14,0.39999,0.19c0.13,0.05,0.27,0.1,0.39999,0.13c0.14,0.03,0.27,0.05,0.39999,0.05
			c0.14,0,0.27-0.02,0.38-0.05c0.12-0.03,0.22-0.09,0.3-0.16c0.09-0.07,0.14999-0.16,0.2-0.26c0.05-0.11,0.07001-0.23,0.07001-0.37
			c0-0.16-0.03999-0.29-0.12-0.39c-0.08-0.1-0.19-0.18-0.33-0.25c-0.13-0.07-0.28999-0.12-0.46001-0.17
			c-0.17-0.05-0.35001-0.1-0.53-0.16s-0.36-0.13-0.53-0.21s-0.33-0.19-0.46001-0.32s-0.24001-0.3-0.33-0.5
			c-0.08-0.2-0.12-0.45-0.12-0.74c0-0.2,0.03-0.38,0.09-0.56c0.06-0.17,0.14-0.33,0.25-0.48c0.11-0.14,0.24001-0.27,0.38-0.38
			c0.14999-0.11,0.31-0.2,0.5-0.27c0.25999-0.11,0.56-0.16,0.91-0.16c0.17,0,0.34,0.01,0.50999,0.04c0.17,0.02,0.34,0.06,0.5,0.12
			c0.16,0.05,0.32001,0.12,0.47,0.21c0.14999,0.09,0.28999,0.19,0.41,0.31l-0.58,0.85L203.13,24.33z"/>
		<path class="st0" d="M211.77,22.87v6.35h-1.16v-3.9c0-0.08,0-0.17,0-0.26s0.00999-0.19,0.02-0.28L208.67,28.51h-0.81l-1.97-3.74
			c0,0.1,0.02,0.2,0.02,0.29c0,0.1,0,0.18,0,0.27v3.9h-1.16v-6.35h1.33l1.89,3.59c0.06,0.1,0.11,0.21,0.16,0.32s0.09,0.22,0.14,0.33
			c0.03999-0.12,0.09-0.23,0.14-0.34s0.10001-0.22,0.16-0.32l1.87-3.58h1.33V22.87z"/>
		<path class="st0" d="M219.23,26.04c0,0.46-0.08,0.89-0.23,1.29c-0.16,0.4-0.38,0.74-0.66,1.03s-0.63,0.52-1.03,0.68
			s-0.84,0.25-1.33,0.25s-0.92999-0.08-1.33-0.25c-0.39999-0.16-0.74001-0.39-1.03-0.68s-0.50999-0.63-0.66-1.03
			c-0.16-0.4-0.23-0.83-0.23-1.29s0.08-0.89,0.23-1.29c0.16-0.4,0.38-0.74,0.66-1.03c0.28999-0.29,0.63-0.52,1.03-0.68
			s0.84-0.25,1.33-0.25s0.92999,0.08,1.33,0.25c0.39999,0.16,0.74001,0.39,1.03,0.68c0.28,0.29,0.5,0.63,0.66,1.03
			c0.16,0.39,0.23,0.82,0.23,1.28V26.04z M217.89,26.04c0-0.33-0.03999-0.63-0.13-0.89c-0.09-0.26-0.21001-0.49-0.38-0.67
			c-0.16-0.18-0.37-0.33-0.60001-0.42c-0.24001-0.1-0.5-0.15-0.8-0.15s-0.56,0.05-0.8,0.15s-0.44,0.24-0.60001,0.42
			c-0.16,0.19-0.28999,0.41-0.38,0.67s-0.13,0.56-0.13,0.89s0.03999,0.64,0.13,0.9c0.09,0.26,0.21001,0.49,0.38,0.67
			s0.37,0.32,0.60001,0.42c0.24001,0.1,0.5,0.15,0.8,0.15s0.56-0.05,0.8-0.15c0.23-0.1,0.42999-0.24,0.60001-0.42
			c0.16-0.19,0.28999-0.41,0.38-0.67C217.84999,26.68,217.89,26.38,217.89,26.04z"/>
	</g>
	<path id="punto" class="st1" d="M71.26,16.42c0-0.16,0.03-0.31,0.09-0.45s0.14-0.26,0.25-0.37s0.23-0.19,0.37-0.25
		s0.29-0.09,0.45-0.09s0.31,0.03,0.45,0.09s0.26,0.14,0.37,0.25c0.1,0.1,0.19,0.23,0.25,0.37s0.09,0.29,0.09,0.45
		s-0.03,0.31-0.09,0.45c-0.06,0.14-0.14,0.26-0.25,0.37c-0.1,0.1-0.23,0.19-0.37,0.25s-0.29,0.09-0.45,0.09s-0.31-0.03-0.45-0.09
		s-0.26-0.14-0.37-0.25s-0.19-0.23-0.25-0.37C71.29,16.73,71.26,16.58,71.26,16.42z"/>
	<g id="unl">
		<path class="st1" d="M54.92,13.3h2.23v0.03l-0.19,0.41c-0.03,0.06-0.06,0.12-0.07,0.18c-0.02,0.06-0.02,0.12-0.02,0.19v2.91
			c0,0.39-0.06,0.75-0.19,1.08c-0.13,0.33-0.31,0.62-0.55,0.85c-0.24,0.24-0.53,0.42-0.87,0.56c-0.34,0.13-0.73,0.2-1.16,0.2
			s-0.82-0.07-1.16-0.2c-0.34-0.13-0.63-0.32-0.87-0.56c-0.24-0.24-0.42-0.52-0.55-0.85s-0.19-0.69-0.19-1.08v-2.87
			c0-0.08,0-0.15-0.02-0.22c-0.02-0.06-0.04-0.13-0.07-0.19l-0.19-0.41V13.3h2.23v0.03l-0.19,0.41c-0.03,0.06-0.06,0.12-0.07,0.18
			c-0.02,0.06-0.02,0.12-0.02,0.19v2.87c0,0.4,0.1,0.71,0.29,0.94c0.19,0.23,0.47,0.34,0.84,0.34s0.65-0.11,0.84-0.34
			s0.28-0.54,0.28-0.94v-2.82c0-0.08,0-0.15-0.02-0.22c-0.02-0.06-0.04-0.13-0.07-0.19l-0.19-0.41v-0.03L54.92,13.3z"/>
		<path class="st1" d="M59.86,19.63H57.7V19.6l0.19-0.41c0.03-0.06,0.05-0.12,0.07-0.18s0.03-0.12,0.03-0.19v-4.69
			c0-0.08,0-0.15-0.02-0.22c-0.02-0.06-0.04-0.13-0.07-0.19l-0.19-0.41v-0.03h1.46l3.09,2.77c-0.02-0.12-0.03-0.23-0.03-0.34
			c0-0.11,0-0.21,0-0.32v-1.27c0-0.08,0-0.15-0.02-0.22c-0.02-0.06-0.04-0.13-0.07-0.19l-0.19-0.41v-0.03h2.16v0.03l-0.19,0.41
			c-0.03,0.07-0.06,0.13-0.07,0.19c-0.02,0.06-0.02,0.14-0.02,0.22v4.69c0,0.07,0,0.13,0.02,0.19c0.02,0.06,0.04,0.11,0.07,0.18
			l0.19,0.41v0.03h-2.07v-0.03l0.16-0.41c0.02-0.06,0.04-0.12,0.06-0.18c0.01-0.06,0.02-0.12,0.02-0.19v-0.63l-2.73-2.45
			c0.02,0.13,0.04,0.26,0.05,0.39c0,0.13,0.01,0.26,0.01,0.4v2.24c0,0.08,0,0.15,0.02,0.22c0.02,0.06,0.04,0.13,0.07,0.19l0.19,0.41
			v0.03L59.86,19.63z"/>
		<path class="st1" d="M64.71,19.61l0.19-0.41c0.03-0.07,0.06-0.13,0.07-0.19c0.02-0.06,0.02-0.14,0.02-0.22v-4.65
			c0-0.08,0-0.15-0.02-0.22c-0.02-0.06-0.04-0.13-0.07-0.19l-0.19-0.41v-0.03h2.23v0.03l-0.19,0.41c-0.03,0.06-0.06,0.12-0.07,0.18
			c-0.02,0.06-0.02,0.12-0.02,0.19v4.17h1.73c0.14,0,0.27-0.01,0.39-0.03s0.26-0.08,0.41-0.16l0.42-0.23h0.02l-0.35,1.78h-4.57V19.6
			L64.71,19.61z"/>
	</g>
	<g id="circulo">
		<path class="st1" d="M42.52,21.26C42.52,33,33,42.52,21.26,42.52S0,33,0,21.26S9.52,0,21.26,0S42.52,9.52,42.52,21.26z"/>
		<g>
			<path class="st2" d="M7.68,18.53v2.15h2.91v1.52H7.68v3.31H5.7v-8.5h5.64l-0.29,1.52C11.05,18.53,7.68,18.53,7.68,18.53z"/>
			<path class="st2" d="M19.65,25.51h-2.04l-0.65-1.91h-3.23l-0.64,1.91h-2.04l3.29-8.5h2.02C16.36,17.01,19.65,25.51,19.65,25.51z
				 M16.52,22.26l-0.79-2.33c-0.06-0.15-0.12-0.32-0.19-0.52s-0.13-0.42-0.2-0.65c-0.06,0.24-0.12,0.46-0.19,0.66
				s-0.13,0.38-0.19,0.53l-0.78,2.32h2.33L16.52,22.26z"/>
			<path class="st2" d="M28.38,21.26c0,0.61-0.11,1.18-0.32,1.7s-0.51,0.97-0.9,1.35c-0.38,0.38-0.85,0.67-1.39,0.89
				c-0.54,0.21-1.14,0.32-1.81,0.32h-3.3v-8.5h3.3c0.66,0,1.26,0.11,1.81,0.32c0.54,0.21,1.01,0.51,1.39,0.89
				c0.39,0.38,0.68,0.83,0.9,1.35c0.21,0.52,0.32,1.08,0.32,1.69V21.26z M26.36,21.26c0-0.42-0.05-0.8-0.16-1.14
				s-0.27-0.62-0.47-0.86c-0.2-0.23-0.45-0.42-0.75-0.54c-0.3-0.13-0.63-0.19-1.01-0.19h-1.32V24h1.32c0.38,0,0.71-0.06,1.01-0.19
				c0.3-0.13,0.55-0.31,0.75-0.54c0.2-0.24,0.36-0.52,0.47-0.86s0.16-0.72,0.16-1.14V21.26z"/>
			<path class="st2" d="M33.27,23.95c0.26,0,0.5-0.04,0.71-0.13c0.21-0.09,0.38-0.21,0.53-0.38c0.14-0.16,0.25-0.36,0.33-0.6
				s0.11-0.5,0.11-0.8V17h1.97v5.04c0,0.52-0.08,1-0.25,1.44s-0.41,0.81-0.73,1.13c-0.32,0.31-0.7,0.56-1.15,0.73
				c-0.45,0.18-0.96,0.26-1.52,0.26s-1.08-0.09-1.53-0.26c-0.45-0.17-0.83-0.42-1.15-0.73c-0.32-0.32-0.56-0.69-0.72-1.13
				c-0.17-0.44-0.25-0.91-0.25-1.44V17h1.97v5.03c0,0.3,0.04,0.57,0.11,0.8c0.08,0.24,0.19,0.44,0.33,0.6
				c0.14,0.16,0.32,0.29,0.53,0.38c0.21,0.09,0.44,0.13,0.71,0.13V23.95z"/>
		</g>
	</g>
</g>
</svg>
