<?xml version="1.0" encoding="UTF-8"?>
<svg id="Capa_1" data-name="Capa 1" xmlns="http://www.w3.org/2000/svg" viewBox="0 0 12.2 6.47">
  <defs>
    <style>
      .cls-1 {
        fill: #575756;
      }
    </style>
  </defs>
  <path class="cls-1" d="m3.64,1.51c-.08-.07-.18-.14-.28-.2-.1-.06-.21-.11-.33-.15-.11-.04-.23-.07-.35-.09s-.23-.03-.35-.03-.24,0-.35.04-.2.07-.28.13-.14.13-.19.23c-.05.09-.07.2-.07.33,0,.14.04.26.12.35s.19.17.33.24.29.13.46.18c.17.05.35.11.53.17s.36.14.53.22.33.19.46.32.24.29.33.47c.08.19.12.41.12.68,0,.35-.06.65-.19.9s-.29.47-.49.65c-.2.17-.44.3-.7.39s-.53.13-.8.13c-.41,0-.8-.07-1.16-.21-.37-.14-.69-.35-.98-.62l.54-.81c.12.08.24.16.37.23.13.07.26.14.4.19.13.05.27.1.4.13.14.03.27.05.4.05.14,0,.27-.02.38-.05.12-.03.22-.09.3-.16.09-.07.15-.16.2-.26.05-.11.07-.23.07-.37,0-.16-.04-.29-.12-.39s-.19-.18-.33-.25c-.13-.07-.29-.12-.46-.17-.17-.05-.35-.1-.53-.16s-.36-.13-.53-.21-.33-.19-.46-.32-.24-.3-.33-.5c-.08-.2-.12-.45-.12-.74,0-.2.03-.38.09-.56.06-.17.14-.33.25-.48.11-.14.24-.27.38-.38.15-.11.31-.2.5-.27.26-.11.56-.16.91-.16.17,0,.34,0,.51.04.17.02.34.06.5.12.16.05.32.12.47.21s.29.19.41.31l-.58.85s.02-.02.02-.02Z"/>
  <path class="cls-1" d="m12.2,6.41h-1.32V.06h1.32v6.35Z"/>
  <path class="cls-1" d="m6.37,1.09v1.63h2.12v.99h-2.12v1.67h2.81l-.18,1.03h-3.95V.06h4.14l-.18,1.03s-2.64,0-2.64,0Z"/>
</svg>